ply
format ascii 1.0
comment VCGLIB generated
element vertex 34
property float x
property float y
property float z
element face 64
property list uchar int vertex_indices
end_header
210 11.231 55 
210 11.469 55 
15.188 6.51602 55 
30.2423 5.14883 55 
15.188 6.51602 5 
50.2496 4.99624 55 
189.816 16.0314 5 
210 11.469 5 
210 11.231 5 
50.2496 4.99624 5 
69.3018 29.0838 5 
49.3646 27.4572 5 
30.2423 5.14883 5 
10 11.35 55 
10 11.35 5 
189.816 16.0314 55 
169.656 20.078 55 
149.517 23.5479 55 
69.3018 29.0838 55 
29.519 23.4777 55 
109.332 28.2812 5 
89.2938 29.273 55 
89.2938 29.273 5 
19.671 19.6294 55 
19.671 19.6294 5 
14.7821 16.8157 5 
14.7821 16.8157 55 
129.406 26.3524 55 
149.517 23.5479 5 
129.406 26.3524 5 
29.519 23.4777 5 
49.3646 27.4572 55 
109.332 28.2812 55 
169.656 20.078 5 
3 0 7 1 
3 7 0 8 
3 7 15 1 
3 15 7 6 
3 9 0 5 
3 0 9 8 
3 4 3 2 
3 3 4 12 
3 22 18 21 
3 18 22 10 
3 12 5 3 
3 5 12 9 
3 8 6 7 
3 9 6 8 
3 6 9 33 
3 33 9 28 
3 28 9 29 
3 29 9 20 
3 20 9 22 
3 22 9 10 
3 9 11 10 
3 30 9 12 
3 9 30 11 
3 12 24 30 
3 4 24 12 
3 4 25 24 
3 25 4 14 
3 14 2 13 
3 2 14 4 
3 15 0 1 
3 5 15 16 
3 5 16 17 
3 5 17 27 
3 5 27 32 
3 5 32 21 
3 5 21 18 
3 15 5 0 
3 31 5 18 
3 19 5 31 
3 5 19 3 
3 23 3 19 
3 23 2 3 
3 26 2 23 
3 2 26 13 
3 20 21 32 
3 21 20 22 
3 24 26 23 
3 26 24 25 
3 14 26 25 
3 26 14 13 
3 28 27 17 
3 27 28 29 
3 10 31 18 
3 31 10 11 
3 30 23 19 
3 23 30 24 
3 11 19 31 
3 19 11 30 
3 29 32 27 
3 32 29 20 
3 33 17 16 
3 17 33 28 
3 6 16 15 
3 16 6 33 
