solid STL generated by MeshLab
  facet normal  1.000000e+00 -0.000000e+00  0.000000e+00
    outer loop
      vertex   2.100000e+02  1.123100e+01  5.500000e+01
      vertex   2.100000e+02  1.146900e+01  5.000000e+00
      vertex   2.100000e+02  1.146900e+01  5.500000e+01
    endloop
  endfacet
  facet normal  1.000000e+00  0.000000e+00  0.000000e+00
    outer loop
      vertex   2.100000e+02  1.146900e+01  5.000000e+00
      vertex   2.100000e+02  1.123100e+01  5.500000e+01
      vertex   2.100000e+02  1.123100e+01  5.000000e+00
    endloop
  endfacet
  facet normal  2.204780e-01  9.753920e-01 -0.000000e+00
    outer loop
      vertex   2.100000e+02  1.146900e+01  5.000000e+00
      vertex   1.898160e+02  1.603140e+01  5.500000e+01
      vertex   2.100000e+02  1.146900e+01  5.500000e+01
    endloop
  endfacet
  facet normal  2.204780e-01  9.753920e-01  0.000000e+00
    outer loop
      vertex   1.898160e+02  1.603140e+01  5.500000e+01
      vertex   2.100000e+02  1.146900e+01  5.000000e+00
      vertex   1.898160e+02  1.603140e+01  5.000000e+00
    endloop
  endfacet
  facet normal  3.899844e-02 -9.992393e-01  0.000000e+00
    outer loop
      vertex   5.024960e+01  4.996240e+00  5.000000e+00
      vertex   2.100000e+02  1.123100e+01  5.500000e+01
      vertex   5.024960e+01  4.996240e+00  5.500000e+01
    endloop
  endfacet
  facet normal  3.899844e-02 -9.992393e-01  0.000000e+00
    outer loop
      vertex   2.100000e+02  1.123100e+01  5.500000e+01
      vertex   5.024960e+01  4.996240e+00  5.000000e+00
      vertex   2.100000e+02  1.123100e+01  5.000000e+00
    endloop
  endfacet
  facet normal -9.044502e-02 -9.959015e-01  0.000000e+00
    outer loop
      vertex   1.518800e+01  6.516020e+00  5.000000e+00
      vertex   3.024230e+01  5.148830e+00  5.500000e+01
      vertex   1.518800e+01  6.516020e+00  5.500000e+01
    endloop
  endfacet
  facet normal -9.044502e-02 -9.959015e-01 -0.000000e+00
    outer loop
      vertex   3.024230e+01  5.148830e+00  5.500000e+01
      vertex   1.518800e+01  6.516020e+00  5.000000e+00
      vertex   3.024230e+01  5.148830e+00  5.000000e+00
    endloop
  endfacet
  facet normal -9.463430e-03  9.999552e-01  0.000000e+00
    outer loop
      vertex   8.929380e+01  2.927300e+01  5.000000e+00
      vertex   6.930180e+01  2.908380e+01  5.500000e+01
      vertex   8.929380e+01  2.927300e+01  5.500000e+01
    endloop
  endfacet
  facet normal -9.463430e-03  9.999552e-01  0.000000e+00
    outer loop
      vertex   6.930180e+01  2.908380e+01  5.500000e+01
      vertex   8.929380e+01  2.927300e+01  5.000000e+00
      vertex   6.930180e+01  2.908380e+01  5.000000e+00
    endloop
  endfacet
  facet normal -7.626484e-03 -9.999709e-01  0.000000e+00
    outer loop
      vertex   3.024230e+01  5.148830e+00  5.000000e+00
      vertex   5.024960e+01  4.996240e+00  5.500000e+01
      vertex   3.024230e+01  5.148830e+00  5.500000e+01
    endloop
  endfacet
  facet normal -7.626484e-03 -9.999709e-01 -0.000000e+00
    outer loop
      vertex   5.024960e+01  4.996240e+00  5.500000e+01
      vertex   3.024230e+01  5.148830e+00  5.000000e+00
      vertex   5.024960e+01  4.996240e+00  5.000000e+00
    endloop
  endfacet
  facet normal  0.000000e+00  0.000000e+00 -1.000000e+00
    outer loop
      vertex   2.100000e+02  1.123100e+01  5.000000e+00
      vertex   1.898160e+02  1.603140e+01  5.000000e+00
      vertex   2.100000e+02  1.146900e+01  5.000000e+00
    endloop
  endfacet
  facet normal  0.000000e+00  0.000000e+00 -1.000000e+00
    outer loop
      vertex   5.024960e+01  4.996240e+00  5.000000e+00
      vertex   1.898160e+02  1.603140e+01  5.000000e+00
      vertex   2.100000e+02  1.123100e+01  5.000000e+00
    endloop
  endfacet
  facet normal -0.000000e+00  0.000000e+00 -1.000000e+00
    outer loop
      vertex   1.898160e+02  1.603140e+01  5.000000e+00
      vertex   5.024960e+01  4.996240e+00  5.000000e+00
      vertex   1.696560e+02  2.007800e+01  5.000000e+00
    endloop
  endfacet
  facet normal -0.000000e+00  0.000000e+00 -1.000000e+00
    outer loop
      vertex   1.696560e+02  2.007800e+01  5.000000e+00
      vertex   5.024960e+01  4.996240e+00  5.000000e+00
      vertex   1.495170e+02  2.354790e+01  5.000000e+00
    endloop
  endfacet
  facet normal -0.000000e+00  0.000000e+00 -1.000000e+00
    outer loop
      vertex   1.495170e+02  2.354790e+01  5.000000e+00
      vertex   5.024960e+01  4.996240e+00  5.000000e+00
      vertex   1.294060e+02  2.635240e+01  5.000000e+00
    endloop
  endfacet
  facet normal -0.000000e+00  0.000000e+00 -1.000000e+00
    outer loop
      vertex   1.294060e+02  2.635240e+01  5.000000e+00
      vertex   5.024960e+01  4.996240e+00  5.000000e+00
      vertex   1.093320e+02  2.828120e+01  5.000000e+00
    endloop
  endfacet
  facet normal -0.000000e+00  0.000000e+00 -1.000000e+00
    outer loop
      vertex   1.093320e+02  2.828120e+01  5.000000e+00
      vertex   5.024960e+01  4.996240e+00  5.000000e+00
      vertex   8.929380e+01  2.927300e+01  5.000000e+00
    endloop
  endfacet
  facet normal  0.000000e+00  0.000000e+00 -1.000000e+00
    outer loop
      vertex   8.929380e+01  2.927300e+01  5.000000e+00
      vertex   5.024960e+01  4.996240e+00  5.000000e+00
      vertex   6.930180e+01  2.908380e+01  5.000000e+00
    endloop
  endfacet
  facet normal  0.000000e+00  0.000000e+00 -1.000000e+00
    outer loop
      vertex   5.024960e+01  4.996240e+00  5.000000e+00
      vertex   4.936460e+01  2.745720e+01  5.000000e+00
      vertex   6.930180e+01  2.908380e+01  5.000000e+00
    endloop
  endfacet
  facet normal  0.000000e+00  0.000000e+00 -1.000000e+00
    outer loop
      vertex   2.951900e+01  2.347770e+01  5.000000e+00
      vertex   5.024960e+01  4.996240e+00  5.000000e+00
      vertex   3.024230e+01  5.148830e+00  5.000000e+00
    endloop
  endfacet
  facet normal  0.000000e+00  0.000000e+00 -1.000000e+00
    outer loop
      vertex   5.024960e+01  4.996240e+00  5.000000e+00
      vertex   2.951900e+01  2.347770e+01  5.000000e+00
      vertex   4.936460e+01  2.745720e+01  5.000000e+00
    endloop
  endfacet
  facet normal  0.000000e+00  0.000000e+00 -1.000000e+00
    outer loop
      vertex   3.024230e+01  5.148830e+00  5.000000e+00
      vertex   1.967100e+01  1.962940e+01  5.000000e+00
      vertex   2.951900e+01  2.347770e+01  5.000000e+00
    endloop
  endfacet
  facet normal  0.000000e+00  0.000000e+00 -1.000000e+00
    outer loop
      vertex   1.518800e+01  6.516020e+00  5.000000e+00
      vertex   1.967100e+01  1.962940e+01  5.000000e+00
      vertex   3.024230e+01  5.148830e+00  5.000000e+00
    endloop
  endfacet
  facet normal  0.000000e+00  0.000000e+00 -1.000000e+00
    outer loop
      vertex   1.518800e+01  6.516020e+00  5.000000e+00
      vertex   1.478210e+01  1.681570e+01  5.000000e+00
      vertex   1.967100e+01  1.962940e+01  5.000000e+00
    endloop
  endfacet
  facet normal  0.000000e+00 -0.000000e+00 -1.000000e+00
    outer loop
      vertex   1.478210e+01  1.681570e+01  5.000000e+00
      vertex   1.518800e+01  6.516020e+00  5.000000e+00
      vertex   1.000000e+01  1.135000e+01  5.000000e+00
    endloop
  endfacet
  facet normal -6.817036e-01 -7.316285e-01  0.000000e+00
    outer loop
      vertex   1.000000e+01  1.135000e+01  5.000000e+00
      vertex   1.518800e+01  6.516020e+00  5.500000e+01
      vertex   1.000000e+01  1.135000e+01  5.500000e+01
    endloop
  endfacet
  facet normal -6.817036e-01 -7.316285e-01 -0.000000e+00
    outer loop
      vertex   1.518800e+01  6.516020e+00  5.500000e+01
      vertex   1.000000e+01  1.135000e+01  5.000000e+00
      vertex   1.518800e+01  6.516020e+00  5.000000e+00
    endloop
  endfacet
  facet normal  0.000000e+00  0.000000e+00  1.000000e+00
    outer loop
      vertex   1.898160e+02  1.603140e+01  5.500000e+01
      vertex   2.100000e+02  1.123100e+01  5.500000e+01
      vertex   2.100000e+02  1.146900e+01  5.500000e+01
    endloop
  endfacet
  facet normal  0.000000e+00  0.000000e+00  1.000000e+00
    outer loop
      vertex   5.024960e+01  4.996240e+00  5.500000e+01
      vertex   1.898160e+02  1.603140e+01  5.500000e+01
      vertex   1.696560e+02  2.007800e+01  5.500000e+01
    endloop
  endfacet
  facet normal  0.000000e+00  0.000000e+00  1.000000e+00
    outer loop
      vertex   5.024960e+01  4.996240e+00  5.500000e+01
      vertex   1.696560e+02  2.007800e+01  5.500000e+01
      vertex   1.495170e+02  2.354790e+01  5.500000e+01
    endloop
  endfacet
  facet normal  0.000000e+00  0.000000e+00  1.000000e+00
    outer loop
      vertex   5.024960e+01  4.996240e+00  5.500000e+01
      vertex   1.495170e+02  2.354790e+01  5.500000e+01
      vertex   1.294060e+02  2.635240e+01  5.500000e+01
    endloop
  endfacet
  facet normal  0.000000e+00  0.000000e+00  1.000000e+00
    outer loop
      vertex   5.024960e+01  4.996240e+00  5.500000e+01
      vertex   1.294060e+02  2.635240e+01  5.500000e+01
      vertex   1.093320e+02  2.828120e+01  5.500000e+01
    endloop
  endfacet
  facet normal  0.000000e+00  0.000000e+00  1.000000e+00
    outer loop
      vertex   5.024960e+01  4.996240e+00  5.500000e+01
      vertex   1.093320e+02  2.828120e+01  5.500000e+01
      vertex   8.929380e+01  2.927300e+01  5.500000e+01
    endloop
  endfacet
  facet normal  0.000000e+00  0.000000e+00  1.000000e+00
    outer loop
      vertex   5.024960e+01  4.996240e+00  5.500000e+01
      vertex   8.929380e+01  2.927300e+01  5.500000e+01
      vertex   6.930180e+01  2.908380e+01  5.500000e+01
    endloop
  endfacet
  facet normal  0.000000e+00  0.000000e+00  1.000000e+00
    outer loop
      vertex   1.898160e+02  1.603140e+01  5.500000e+01
      vertex   5.024960e+01  4.996240e+00  5.500000e+01
      vertex   2.100000e+02  1.123100e+01  5.500000e+01
    endloop
  endfacet
  facet normal -0.000000e+00  0.000000e+00  1.000000e+00
    outer loop
      vertex   4.936460e+01  2.745720e+01  5.500000e+01
      vertex   5.024960e+01  4.996240e+00  5.500000e+01
      vertex   6.930180e+01  2.908380e+01  5.500000e+01
    endloop
  endfacet
  facet normal -0.000000e+00  0.000000e+00  1.000000e+00
    outer loop
      vertex   2.951900e+01  2.347770e+01  5.500000e+01
      vertex   5.024960e+01  4.996240e+00  5.500000e+01
      vertex   4.936460e+01  2.745720e+01  5.500000e+01
    endloop
  endfacet
  facet normal  0.000000e+00  0.000000e+00  1.000000e+00
    outer loop
      vertex   5.024960e+01  4.996240e+00  5.500000e+01
      vertex   2.951900e+01  2.347770e+01  5.500000e+01
      vertex   3.024230e+01  5.148830e+00  5.500000e+01
    endloop
  endfacet
  facet normal -0.000000e+00  0.000000e+00  1.000000e+00
    outer loop
      vertex   1.967100e+01  1.962940e+01  5.500000e+01
      vertex   3.024230e+01  5.148830e+00  5.500000e+01
      vertex   2.951900e+01  2.347770e+01  5.500000e+01
    endloop
  endfacet
  facet normal  0.000000e+00  0.000000e+00  1.000000e+00
    outer loop
      vertex   1.967100e+01  1.962940e+01  5.500000e+01
      vertex   1.518800e+01  6.516020e+00  5.500000e+01
      vertex   3.024230e+01  5.148830e+00  5.500000e+01
    endloop
  endfacet
  facet normal -0.000000e+00  0.000000e+00  1.000000e+00
    outer loop
      vertex   1.478210e+01  1.681570e+01  5.500000e+01
      vertex   1.518800e+01  6.516020e+00  5.500000e+01
      vertex   1.967100e+01  1.962940e+01  5.500000e+01
    endloop
  endfacet
  facet normal  0.000000e+00  0.000000e+00  1.000000e+00
    outer loop
      vertex   1.518800e+01  6.516020e+00  5.500000e+01
      vertex   1.478210e+01  1.681570e+01  5.500000e+01
      vertex   1.000000e+01  1.135000e+01  5.500000e+01
    endloop
  endfacet
  facet normal  4.943496e-02  9.987773e-01 -0.000000e+00
    outer loop
      vertex   1.093320e+02  2.828120e+01  5.000000e+00
      vertex   8.929380e+01  2.927300e+01  5.500000e+01
      vertex   1.093320e+02  2.828120e+01  5.500000e+01
    endloop
  endfacet
  facet normal  4.943496e-02  9.987773e-01  0.000000e+00
    outer loop
      vertex   8.929380e+01  2.927300e+01  5.500000e+01
      vertex   1.093320e+02  2.828120e+01  5.000000e+00
      vertex   8.929380e+01  2.927300e+01  5.000000e+00
    endloop
  endfacet
  facet normal -4.988151e-01  8.667084e-01  0.000000e+00
    outer loop
      vertex   1.967100e+01  1.962940e+01  5.000000e+00
      vertex   1.478210e+01  1.681570e+01  5.500000e+01
      vertex   1.967100e+01  1.962940e+01  5.500000e+01
    endloop
  endfacet
  facet normal -4.988151e-01  8.667084e-01  0.000000e+00
    outer loop
      vertex   1.478210e+01  1.681570e+01  5.500000e+01
      vertex   1.967100e+01  1.962940e+01  5.000000e+00
      vertex   1.478210e+01  1.681570e+01  5.000000e+00
    endloop
  endfacet
  facet normal -7.526032e-01  6.584743e-01  0.000000e+00
    outer loop
      vertex   1.000000e+01  1.135000e+01  5.000000e+00
      vertex   1.478210e+01  1.681570e+01  5.500000e+01
      vertex   1.478210e+01  1.681570e+01  5.000000e+00
    endloop
  endfacet
  facet normal -7.526032e-01  6.584743e-01  0.000000e+00
    outer loop
      vertex   1.478210e+01  1.681570e+01  5.500000e+01
      vertex   1.000000e+01  1.135000e+01  5.000000e+00
      vertex   1.000000e+01  1.135000e+01  5.500000e+01
    endloop
  endfacet
  facet normal  1.381147e-01  9.904162e-01 -0.000000e+00
    outer loop
      vertex   1.495170e+02  2.354790e+01  5.000000e+00
      vertex   1.294060e+02  2.635240e+01  5.500000e+01
      vertex   1.495170e+02  2.354790e+01  5.500000e+01
    endloop
  endfacet
  facet normal  1.381147e-01  9.904162e-01  0.000000e+00
    outer loop
      vertex   1.294060e+02  2.635240e+01  5.500000e+01
      vertex   1.495170e+02  2.354790e+01  5.000000e+00
      vertex   1.294060e+02  2.635240e+01  5.000000e+00
    endloop
  endfacet
  facet normal -8.131601e-02  9.966884e-01  0.000000e+00
    outer loop
      vertex   6.930180e+01  2.908380e+01  5.000000e+00
      vertex   4.936460e+01  2.745720e+01  5.500000e+01
      vertex   6.930180e+01  2.908380e+01  5.500000e+01
    endloop
  endfacet
  facet normal -8.131601e-02  9.966884e-01  0.000000e+00
    outer loop
      vertex   4.936460e+01  2.745720e+01  5.500000e+01
      vertex   6.930180e+01  2.908380e+01  5.000000e+00
      vertex   4.936460e+01  2.745720e+01  5.000000e+00
    endloop
  endfacet
  facet normal -3.639674e-01  9.314117e-01  0.000000e+00
    outer loop
      vertex   2.951900e+01  2.347770e+01  5.000000e+00
      vertex   1.967100e+01  1.962940e+01  5.500000e+01
      vertex   2.951900e+01  2.347770e+01  5.500000e+01
    endloop
  endfacet
  facet normal -3.639674e-01  9.314117e-01  0.000000e+00
    outer loop
      vertex   1.967100e+01  1.962940e+01  5.500000e+01
      vertex   2.951900e+01  2.347770e+01  5.000000e+00
      vertex   1.967100e+01  1.962940e+01  5.000000e+00
    endloop
  endfacet
  facet normal -1.966092e-01  9.804819e-01  0.000000e+00
    outer loop
      vertex   4.936460e+01  2.745720e+01  5.000000e+00
      vertex   2.951900e+01  2.347770e+01  5.500000e+01
      vertex   4.936460e+01  2.745720e+01  5.500000e+01
    endloop
  endfacet
  facet normal -1.966092e-01  9.804819e-01  0.000000e+00
    outer loop
      vertex   2.951900e+01  2.347770e+01  5.500000e+01
      vertex   4.936460e+01  2.745720e+01  5.000000e+00
      vertex   2.951900e+01  2.347770e+01  5.000000e+00
    endloop
  endfacet
  facet normal  9.564400e-02  9.954156e-01 -0.000000e+00
    outer loop
      vertex   1.294060e+02  2.635240e+01  5.000000e+00
      vertex   1.093320e+02  2.828120e+01  5.500000e+01
      vertex   1.294060e+02  2.635240e+01  5.500000e+01
    endloop
  endfacet
  facet normal  9.564400e-02  9.954156e-01  0.000000e+00
    outer loop
      vertex   1.093320e+02  2.828120e+01  5.500000e+01
      vertex   1.294060e+02  2.635240e+01  5.000000e+00
      vertex   1.093320e+02  2.828120e+01  5.000000e+00
    endloop
  endfacet
  facet normal  1.697956e-01  9.854794e-01 -0.000000e+00
    outer loop
      vertex   1.696560e+02  2.007800e+01  5.000000e+00
      vertex   1.495170e+02  2.354790e+01  5.500000e+01
      vertex   1.696560e+02  2.007800e+01  5.500000e+01
    endloop
  endfacet
  facet normal  1.697956e-01  9.854794e-01  0.000000e+00
    outer loop
      vertex   1.495170e+02  2.354790e+01  5.500000e+01
      vertex   1.696560e+02  2.007800e+01  5.000000e+00
      vertex   1.495170e+02  2.354790e+01  5.000000e+00
    endloop
  endfacet
  facet normal  1.967989e-01  9.804439e-01 -0.000000e+00
    outer loop
      vertex   1.898160e+02  1.603140e+01  5.000000e+00
      vertex   1.696560e+02  2.007800e+01  5.500000e+01
      vertex   1.898160e+02  1.603140e+01  5.500000e+01
    endloop
  endfacet
  facet normal  1.967989e-01  9.804439e-01  0.000000e+00
    outer loop
      vertex   1.696560e+02  2.007800e+01  5.500000e+01
      vertex   1.898160e+02  1.603140e+01  5.000000e+00
      vertex   1.696560e+02  2.007800e+01  5.000000e+00
    endloop
  endfacet
endsolid vcg
