ply
format ascii 1.0
comment VCGLIB generated
element vertex 34
property float x
property float y
property float z
element face 64
property list uchar int vertex_indices
end_header
210 11.231 55 
210 11.469 5 
210 11.469 55 
210 11.231 5 
189.816 16.0314 55 
189.816 16.0314 5 
50.2496 4.99624 5 
50.2496 4.99624 55 
15.188 6.51602 5 
30.2423 5.14883 55 
15.188 6.51602 55 
30.2423 5.14883 5 
89.2938 29.273 5 
69.3018 29.0838 55 
89.2938 29.273 55 
69.3018 29.0838 5 
169.656 20.078 5 
149.517 23.5479 5 
129.406 26.3524 5 
109.332 28.2812 5 
49.3646 27.4572 5 
29.519 23.4777 5 
19.671 19.6294 5 
14.7821 16.8157 5 
10 11.35 5 
10 11.35 55 
169.656 20.078 55 
149.517 23.5479 55 
129.406 26.3524 55 
109.332 28.2812 55 
49.3646 27.4572 55 
29.519 23.4777 55 
19.671 19.6294 55 
14.7821 16.8157 55 
3 0 1 2 
3 1 0 3 
3 1 4 2 
3 4 1 5 
3 6 0 7 
3 0 6 3 
3 8 9 10 
3 9 8 11 
3 12 13 14 
3 13 12 15 
3 11 7 9 
3 7 11 6 
3 3 5 1 
3 6 5 3 
3 5 6 16 
3 16 6 17 
3 17 6 18 
3 18 6 19 
3 19 6 12 
3 12 6 15 
3 6 20 15 
3 21 6 11 
3 6 21 20 
3 11 22 21 
3 8 22 11 
3 8 23 22 
3 23 8 24 
3 24 10 25 
3 10 24 8 
3 4 0 2 
3 7 4 26 
3 7 26 27 
3 7 27 28 
3 7 28 29 
3 7 29 14 
3 7 14 13 
3 4 7 0 
3 30 7 13 
3 31 7 30 
3 7 31 9 
3 32 9 31 
3 32 10 9 
3 33 10 32 
3 10 33 25 
3 19 14 29 
3 14 19 12 
3 22 33 32 
3 33 22 23 
3 24 33 23 
3 33 24 25 
3 17 28 27 
3 28 17 18 
3 15 30 13 
3 30 15 20 
3 21 32 31 
3 32 21 22 
3 20 31 30 
3 31 20 21 
3 18 29 28 
3 29 18 19 
3 16 27 26 
3 27 16 17 
3 5 26 4 
3 26 5 16 
