ply
format ascii 1.0
comment VCGLIB generated
element vertex 20
property float x
property float y
property float z
element face 36
property list uchar int vertex_indices
end_header
0.934172 -0.356822 0 
0.934172 0.356822 0 
0.57735 -0.57735 0.57735 
0.356822 0 0.934172 
0.57735 0.57735 0.57735 
0.57735 0.57735 -0.57735 
0.356822 0 -0.934172 
0.57735 -0.57735 -0.57735 
-0.934172 -0.356822 0 
-0.934172 0.356822 0 
-0.57735 -0.57735 -0.57735 
-0.356822 0 -0.934172 
-0.57735 0.57735 -0.57735 
-0.57735 0.57735 0.57735 
-0.356822 0 0.934172 
-0.57735 -0.57735 0.57735 
0 0.934172 -0.356822 
0 0.934172 0.356822 
0 -0.934172 -0.356822 
0 -0.934172 0.356822 
3 0 1 2 
3 2 1 3 
3 3 1 4 
3 5 1 6 
3 6 1 7 
3 7 1 0 
3 8 9 10 
3 10 9 11 
3 11 9 12 
3 13 9 14 
3 14 9 15 
3 15 9 8 
3 12 9 16 
3 16 9 17 
3 17 9 13 
3 4 1 17 
3 17 1 16 
3 16 1 5 
3 7 0 18 
3 18 0 19 
3 19 0 2 
3 15 8 19 
3 19 8 18 
3 18 8 10 
3 11 6 10 
3 10 6 18 
3 18 6 7 
3 12 16 11 
3 11 16 6 
3 6 16 5 
3 4 17 3 
3 3 17 14 
3 14 17 13 
3 15 19 14 
3 14 19 3 
3 3 19 2 
