solid growler2 - growler.step-1 EA-18G Growler-10.step-1
   facet normal 0.000000e+00 -5.000001e-01 8.660254e-01
      outer loop
         vertex 9.397210e+00 2.656431e+00 5.322821e+00
         vertex 9.305379e+00 2.656431e+00 5.322821e+00
         vertex 9.041296e+00 1.593865e+00 4.709348e+00
      endloop
   endfacet
   facet normal 8.588873e-08 -5.000001e-01 8.660254e-01
      outer loop
         vertex 9.041296e+00 1.593865e+00 4.709348e+00
         vertex 9.305379e+00 2.656431e+00 5.322821e+00
         vertex 8.293458e+00 1.617298e+00 4.722877e+00
      endloop
   endfacet
   facet normal 1.376337e-07 -4.999988e-01 8.660261e-01
      outer loop
         vertex 9.041296e+00 1.593865e+00 4.709348e+00
         vertex 8.293458e+00 1.617298e+00 4.722877e+00
         vertex 9.036233e+00 1.472700e+00 4.639394e+00
      endloop
   endfacet
   facet normal -4.789913e-08 -4.999996e-01 8.660257e-01
      outer loop
         vertex 9.036233e+00 1.472700e+00 4.639394e+00
         vertex 8.293458e+00 1.617298e+00 4.722877e+00
         vertex 8.288396e+00 1.496133e+00 4.652923e+00
      endloop
   endfacet
   facet normal 1.470283e-02 -5.036351e-01 8.637914e-01
      outer loop
         vertex 9.397210e+00 2.656431e+00 5.322821e+00
         vertex 9.041296e+00 1.593865e+00 4.709348e+00
         vertex 9.465477e+00 2.701232e+00 5.347781e+00
      endloop
   endfacet
   facet normal 2.434199e-02 -5.063019e-01 8.620127e-01
      outer loop
         vertex 9.465477e+00 2.701232e+00 5.347781e+00
         vertex 9.041296e+00 1.593865e+00 4.709348e+00
         vertex 9.128814e+00 1.592199e+00 4.705899e+00
      endloop
   endfacet
   facet normal 4.396624e-02 -5.104052e-01 8.588094e-01
      outer loop
         vertex 9.465477e+00 2.701232e+00 5.347781e+00
         vertex 9.128814e+00 1.592199e+00 4.705899e+00
         vertex 9.533681e+00 2.746776e+00 5.371357e+00
      endloop
   endfacet
   facet normal 7.370580e-02 -5.172769e-01 8.526383e-01
      outer loop
         vertex 9.533681e+00 2.746776e+00 5.371357e+00
         vertex 9.128814e+00 1.592199e+00 4.705899e+00
         vertex 9.601756e+00 2.793021e+00 5.393527e+00
      endloop
   endfacet
   facet normal 7.968382e-02 -5.187947e-01 8.511772e-01
      outer loop
         vertex 9.601756e+00 2.793021e+00 5.393527e+00
         vertex 9.128814e+00 1.592199e+00 4.705899e+00
         vertex 9.240103e+00 1.593209e+00 4.696096e+00
      endloop
   endfacet
   facet normal 1.026342e-01 -5.228375e-01 8.462312e-01
      outer loop
         vertex 9.601756e+00 2.793021e+00 5.393527e+00
         vertex 9.240103e+00 1.593209e+00 4.696096e+00
         vertex 9.669640e+00 2.839922e+00 5.414272e+00
      endloop
   endfacet
   facet normal 1.320577e-01 -5.285575e-01 8.385629e-01
      outer loop
         vertex 9.669640e+00 2.839922e+00 5.414272e+00
         vertex 9.240103e+00 1.593209e+00 4.696096e+00
         vertex 9.737268e+00 2.887437e+00 5.433571e+00
      endloop
   endfacet
   facet normal 1.414479e-01 -5.305665e-01 8.357581e-01
      outer loop
         vertex 9.737268e+00 2.887437e+00 5.433571e+00
         vertex 9.240103e+00 1.593209e+00 4.696096e+00
         vertex 9.350695e+00 1.597736e+00 4.680252e+00
      endloop
   endfacet
   facet normal 1.609249e-01 -5.333150e-01 8.304687e-01
      outer loop
         vertex 9.737268e+00 2.887437e+00 5.433571e+00
         vertex 9.350695e+00 1.597736e+00 4.680252e+00
         vertex 9.804578e+00 2.935521e+00 5.451407e+00
      endloop
   endfacet
   facet normal 1.899444e-01 -5.378952e-01 8.213342e-01
      outer loop
         vertex 9.804578e+00 2.935521e+00 5.451407e+00
         vertex 9.350695e+00 1.597736e+00 4.680252e+00
         vertex 9.871505e+00 2.984127e+00 5.467762e+00
      endloop
   endfacet
   facet normal 2.026194e-01 -5.401052e-01 8.168425e-01
      outer loop
         vertex 9.871505e+00 2.984127e+00 5.467762e+00
         vertex 9.350695e+00 1.597736e+00 4.680252e+00
         vertex 9.459850e+00 1.605749e+00 4.658475e+00
      endloop
   endfacet
   facet normal 2.186134e-01 -5.417940e-01 8.115833e-01
      outer loop
         vertex 9.871505e+00 2.984127e+00 5.467762e+00
         vertex 9.459850e+00 1.605749e+00 4.658475e+00
         vertex 9.937989e+00 3.033212e+00 5.482621e+00
      endloop
   endfacet
   facet normal 0.000000e+00 -4.732527e-01 8.809267e-01
      outer loop
         vertex 9.257733e+00 2.746776e+00 5.371357e+00
         vertex 9.305379e+00 2.656431e+00 5.322821e+00
         vertex 9.397210e+00 2.656431e+00 5.322821e+00
      endloop
   endfacet
   facet normal -5.688846e-03 -4.800464e-01 8.772247e-01
      outer loop
         vertex 9.397210e+00 2.656431e+00 5.322821e+00
         vertex 9.465477e+00 2.701232e+00 5.347781e+00
         vertex 9.257733e+00 2.746776e+00 5.371357e+00
      endloop
   endfacet
   facet normal 0.000000e+00 -4.597109e-01 8.880687e-01
      outer loop
         vertex 9.257733e+00 2.746776e+00 5.371357e+00
         vertex 9.465477e+00 2.701232e+00 5.347781e+00
         vertex 9.533681e+00 2.746776e+00 5.371357e+00
      endloop
   endfacet
   facet normal 0.000000e+00 -4.184544e-01 9.082378e-01
      outer loop
         vertex 9.257733e+00 2.746776e+00 5.371357e+00
         vertex 9.533681e+00 2.746776e+00 5.371357e+00
         vertex 9.210266e+00 2.839922e+00 5.414272e+00
      endloop
   endfacet
   facet normal -3.416652e-03 -4.282134e-01 9.036712e-01
      outer loop
         vertex 9.533681e+00 2.746776e+00 5.371357e+00
         vertex 9.601756e+00 2.793021e+00 5.393527e+00
         vertex 9.210266e+00 2.839922e+00 5.414272e+00
      endloop
   endfacet
   facet normal 0.000000e+00 -4.045007e-01 9.145377e-01
      outer loop
         vertex 9.210266e+00 2.839922e+00 5.414272e+00
         vertex 9.601756e+00 2.793021e+00 5.393527e+00
         vertex 9.669640e+00 2.839922e+00 5.414272e+00
      endloop
   endfacet
   facet normal 0.000000e+00 -3.620858e-01 9.321448e-01
      outer loop
         vertex 9.210266e+00 2.839922e+00 5.414272e+00
         vertex 9.669640e+00 2.839922e+00 5.414272e+00
         vertex 9.163155e+00 2.935521e+00 5.451407e+00
      endloop
   endfacet
   facet normal -2.446526e-03 -3.733207e-01 9.276991e-01
      outer loop
         vertex 9.669640e+00 2.839922e+00 5.414272e+00
         vertex 9.737268e+00 2.887437e+00 5.433571e+00
         vertex 9.163155e+00 2.935521e+00 5.451407e+00
      endloop
   endfacet
   facet normal 0.000000e+00 -3.477738e-01 9.375785e-01
      outer loop
         vertex 9.163155e+00 2.935521e+00 5.451407e+00
         vertex 9.737268e+00 2.887437e+00 5.433571e+00
         vertex 9.804578e+00 2.935521e+00 5.451407e+00
      endloop
   endfacet
   facet normal 0.000000e+00 -3.043602e-01 9.525570e-01
      outer loop
         vertex 9.163155e+00 2.935521e+00 5.451407e+00
         vertex 9.804578e+00 2.935521e+00 5.451407e+00
         vertex 9.116578e+00 3.033212e+00 5.482621e+00
      endloop
   endfacet
   facet normal -1.910207e-03 -3.165413e-01 9.485768e-01
      outer loop
         vertex 9.116578e+00 3.033212e+00 5.482621e+00
         vertex 9.804578e+00 2.935521e+00 5.451407e+00
         vertex 9.871505e+00 2.984127e+00 5.467762e+00
      endloop
   endfacet
   facet normal 0.000000e+00 -2.897436e-01 9.571043e-01
      outer loop
         vertex 9.116578e+00 3.033212e+00 5.482621e+00
         vertex 9.871505e+00 2.984127e+00 5.467762e+00
         vertex 9.937989e+00 3.033212e+00 5.482621e+00
      endloop
   endfacet
   facet normal -1.665321e-01 -3.663632e-01 9.154480e-01
      outer loop
         vertex 9.116578e+00 3.033212e+00 5.482621e+00
         vertex 7.777824e+00 1.658455e+00 4.688905e+00
         vertex 7.882993e+00 1.645913e+00 4.703017e+00
      endloop
   endfacet
   facet normal -1.623699e-01 -3.697248e-01 9.148440e-01
      outer loop
         vertex 9.116578e+00 3.033212e+00 5.482621e+00
         vertex 7.882993e+00 1.645913e+00 4.703017e+00
         vertex 9.163155e+00 2.935521e+00 5.451407e+00
      endloop
   endfacet
   facet normal -1.232593e-01 -4.037286e-01 9.065376e-01
      outer loop
         vertex 9.163155e+00 2.935521e+00 5.451407e+00
         vertex 7.882993e+00 1.645913e+00 4.703017e+00
         vertex 8.018691e+00 1.632930e+00 4.715685e+00
      endloop
   endfacet
   facet normal -1.164016e-01 -4.089447e-01 9.051049e-01
      outer loop
         vertex 9.163155e+00 2.935521e+00 5.451407e+00
         vertex 8.018691e+00 1.632930e+00 4.715685e+00
         vertex 9.210266e+00 2.839922e+00 5.414272e+00
      endloop
   endfacet
   facet normal -7.417615e-02 -4.436865e-01 8.931070e-01
      outer loop
         vertex 9.210266e+00 2.839922e+00 5.414272e+00
         vertex 8.018691e+00 1.632930e+00 4.715685e+00
         vertex 8.155864e+00 1.623365e+00 4.722326e+00
      endloop
   endfacet
   facet normal -7.002041e-02 -4.466411e-01 8.919691e-01
      outer loop
         vertex 9.210266e+00 2.839922e+00 5.414272e+00
         vertex 8.155864e+00 1.623365e+00 4.722326e+00
         vertex 9.257733e+00 2.746776e+00 5.371357e+00
      endloop
   endfacet
   facet normal -2.475207e-02 -4.817818e-01 8.759416e-01
      outer loop
         vertex 9.257733e+00 2.746776e+00 5.371357e+00
         vertex 8.155864e+00 1.623365e+00 4.722326e+00
         vertex 8.293458e+00 1.617298e+00 4.722877e+00
      endloop
   endfacet
   facet normal -2.340315e-02 -4.826730e-01 8.754879e-01
      outer loop
         vertex 9.257733e+00 2.746776e+00 5.371357e+00
         vertex 8.293458e+00 1.617298e+00 4.722877e+00
         vertex 9.305379e+00 2.656431e+00 5.322821e+00
      endloop
   endfacet
   facet normal -2.199458e-07 5.000006e-01 -8.660251e-01
      outer loop
         vertex 9.036233e+00 1.522700e+00 4.552791e+00
         vertex 8.288396e+00 1.546133e+00 4.566321e+00
         vertex 9.041296e+00 1.643864e+00 4.622746e+00
      endloop
   endfacet
   facet normal -9.454707e-08 4.999999e-01 -8.660255e-01
      outer loop
         vertex 9.041296e+00 1.643864e+00 4.622746e+00
         vertex 8.288396e+00 1.546133e+00 4.566321e+00
         vertex 8.293458e+00 1.667298e+00 4.636275e+00
      endloop
   endfacet
   facet normal -8.565856e-08 5.000001e-01 -8.660253e-01
      outer loop
         vertex 9.041296e+00 1.643864e+00 4.622746e+00
         vertex 8.293458e+00 1.667298e+00 4.636275e+00
         vertex 9.397210e+00 2.706431e+00 5.236219e+00
      endloop
   endfacet
   facet normal 0.000000e+00 5.000000e-01 -8.660254e-01
      outer loop
         vertex 9.397210e+00 2.706431e+00 5.236219e+00
         vertex 8.293458e+00 1.667298e+00 4.636275e+00
         vertex 9.305379e+00 2.706431e+00 5.236219e+00
      endloop
   endfacet
   facet normal 1.548798e-01 4.548115e-01 -8.770169e-01
      outer loop
         vertex 9.374577e+00 1.617658e+00 4.644018e+00
         vertex 9.264344e+00 1.629852e+00 4.630875e+00
         vertex 9.669640e+00 2.877376e+00 5.349402e+00
      endloop
   endfacet
   facet normal 1.333975e-01 4.602357e-01 -8.777176e-01
      outer loop
         vertex 9.669640e+00 2.877376e+00 5.349402e+00
         vertex 9.737268e+00 2.917846e+00 5.380901e+00
         vertex 9.374577e+00 1.617658e+00 4.644018e+00
      endloop
   endfacet
   facet normal 1.611895e-01 4.522053e-01 -8.772276e-01
      outer loop
         vertex 9.374577e+00 1.617658e+00 4.644018e+00
         vertex 9.737268e+00 2.917846e+00 5.380901e+00
         vertex 9.804578e+00 2.957334e+00 5.413625e+00
      endloop
   endfacet
   facet normal 2.092649e-01 4.357314e-01 -8.754121e-01
      outer loop
         vertex 9.374577e+00 1.617658e+00 4.644018e+00
         vertex 9.804578e+00 2.957334e+00 5.413625e+00
         vertex 9.459850e+00 1.605749e+00 4.658475e+00
      endloop
   endfacet
   facet normal 1.907541e-01 4.412660e-01 -8.768678e-01
      outer loop
         vertex 9.459850e+00 1.605749e+00 4.658475e+00
         vertex 9.804578e+00 2.957334e+00 5.413625e+00
         vertex 9.871505e+00 2.995801e+00 5.447542e+00
      endloop
   endfacet
   facet normal 2.186141e-01 4.319546e-01 -8.749989e-01
      outer loop
         vertex 9.459850e+00 1.605749e+00 4.658475e+00
         vertex 9.871505e+00 2.995801e+00 5.447542e+00
         vertex 9.937989e+00 3.033212e+00 5.482621e+00
      endloop
   endfacet
   facet normal 3.109256e-02 4.919270e-01 -8.700811e-01
      outer loop
         vertex 9.152988e+00 1.638609e+00 4.623766e+00
         vertex 9.041296e+00 1.643864e+00 4.622746e+00
         vertex 9.397210e+00 2.706431e+00 5.236219e+00
      endloop
   endfacet
   facet normal 1.602768e-02 4.947032e-01 -8.689142e-01
      outer loop
         vertex 9.397210e+00 2.706431e+00 5.236219e+00
         vertex 9.465477e+00 2.750447e+00 5.262538e+00
         vertex 9.152988e+00 1.638609e+00 4.623766e+00
      endloop
   endfacet
   facet normal 4.416579e-02 4.883102e-01 -8.715518e-01
      outer loop
         vertex 9.152988e+00 1.638609e+00 4.623766e+00
         vertex 9.465477e+00 2.750447e+00 5.262538e+00
         vertex 9.533681e+00 2.793637e+00 5.290192e+00
      endloop
   endfacet
   facet normal 9.318956e-02 4.743627e-01 -8.753832e-01
      outer loop
         vertex 9.152988e+00 1.638609e+00 4.623766e+00
         vertex 9.533681e+00 2.793637e+00 5.290192e+00
         vertex 9.264344e+00 1.629852e+00 4.630875e+00
      endloop
   endfacet
   facet normal 7.486331e-02 4.783663e-01 -8.749635e-01
      outer loop
         vertex 9.264344e+00 1.629852e+00 4.630875e+00
         vertex 9.533681e+00 2.793637e+00 5.290192e+00
         vertex 9.601756e+00 2.835959e+00 5.319156e+00
      endloop
   endfacet
   facet normal 1.028743e-01 4.711429e-01 -8.760373e-01
      outer loop
         vertex 9.264344e+00 1.629852e+00 4.630875e+00
         vertex 9.601756e+00 2.835959e+00 5.319156e+00
         vertex 9.669640e+00 2.877376e+00 5.349402e+00
      endloop
   endfacet
   facet normal 0.000000e+00 5.131973e-01 -8.582707e-01
      outer loop
         vertex 9.397210e+00 2.706431e+00 5.236219e+00
         vertex 9.305379e+00 2.706431e+00 5.236219e+00
         vertex 9.465477e+00 2.750447e+00 5.262538e+00
      endloop
   endfacet
   facet normal -4.268908e-03 5.245848e-01 -8.513475e-01
      outer loop
         vertex 9.465477e+00 2.750447e+00 5.262538e+00
         vertex 9.305379e+00 2.706431e+00 5.236219e+00
         vertex 9.257733e+00 2.793637e+00 5.290192e+00
      endloop
   endfacet
   facet normal 0.000000e+00 5.392333e-01 -8.421564e-01
      outer loop
         vertex 9.465477e+00 2.750447e+00 5.262538e+00
         vertex 9.257733e+00 2.793637e+00 5.290192e+00
         vertex 9.533681e+00 2.793637e+00 5.290192e+00
      endloop
   endfacet
   facet normal 0.000000e+00 5.647632e-01 -8.252530e-01
      outer loop
         vertex 9.533681e+00 2.793637e+00 5.290192e+00
         vertex 9.257733e+00 2.793637e+00 5.290192e+00
         vertex 9.601756e+00 2.835959e+00 5.319156e+00
      endloop
   endfacet
   facet normal -2.134919e-03 5.765226e-01 -8.170784e-01
      outer loop
         vertex 9.601756e+00 2.835959e+00 5.319156e+00
         vertex 9.257733e+00 2.793637e+00 5.290192e+00
         vertex 9.210266e+00 2.877376e+00 5.349402e+00
      endloop
   endfacet
   facet normal 0.000000e+00 5.897636e-01 -8.075759e-01
      outer loop
         vertex 9.601756e+00 2.835959e+00 5.319156e+00
         vertex 9.210266e+00 2.877376e+00 5.349402e+00
         vertex 9.669640e+00 2.877376e+00 5.349402e+00
      endloop
   endfacet
   facet normal 0.000000e+00 6.142090e-01 -7.891434e-01
      outer loop
         vertex 9.669640e+00 2.877376e+00 5.349402e+00
         vertex 9.210266e+00 2.877376e+00 5.349402e+00
         vertex 9.737268e+00 2.917846e+00 5.380901e+00
      endloop
   endfacet
   facet normal -1.425997e-03 6.257062e-01 -7.800575e-01
      outer loop
         vertex 9.737268e+00 2.917846e+00 5.380901e+00
         vertex 9.210266e+00 2.877376e+00 5.349402e+00
         vertex 9.163155e+00 2.957334e+00 5.413625e+00
      endloop
   endfacet
   facet normal 0.000000e+00 6.380796e-01 -7.699704e-01
      outer loop
         vertex 9.737268e+00 2.917846e+00 5.380901e+00
         vertex 9.163155e+00 2.957334e+00 5.413625e+00
         vertex 9.804578e+00 2.957334e+00 5.413625e+00
      endloop
   endfacet
   facet normal 0.000000e+00 6.613550e-01 -7.500730e-01
      outer loop
         vertex 9.804578e+00 2.957334e+00 5.413625e+00
         vertex 9.163155e+00 2.957334e+00 5.413625e+00
         vertex 9.871505e+00 2.995801e+00 5.447542e+00
      endloop
   endfacet
   facet normal -1.072945e-03 6.723978e-01 -7.401892e-01
      outer loop
         vertex 9.871505e+00 2.995801e+00 5.447542e+00
         vertex 9.163155e+00 2.957334e+00 5.413625e+00
         vertex 9.116578e+00 3.033212e+00 5.482621e+00
      endloop
   endfacet
   facet normal 0.000000e+00 6.840050e-01 -7.294773e-01
      outer loop
         vertex 9.871505e+00 2.995801e+00 5.447542e+00
         vertex 9.116578e+00 3.033212e+00 5.482621e+00
         vertex 9.937989e+00 3.033212e+00 5.482621e+00
      endloop
   endfacet
   facet normal -1.962008e-02 5.141650e-01 -8.574668e-01
      outer loop
         vertex 9.305379e+00 2.706431e+00 5.236219e+00
         vertex 8.293458e+00 1.667298e+00 4.636275e+00
         vertex 8.184350e+00 1.669613e+00 4.640160e+00
      endloop
   endfacet
   facet normal -2.314798e-02 5.169613e-01 -8.556958e-01
      outer loop
         vertex 9.305379e+00 2.706431e+00 5.236219e+00
         vertex 8.184350e+00 1.669613e+00 4.640160e+00
         vertex 9.257733e+00 2.793637e+00 5.290192e+00
      endloop
   endfacet
   facet normal -6.387564e-02 5.446103e-01 -8.362533e-01
      outer loop
         vertex 9.257733e+00 2.793637e+00 5.290192e+00
         vertex 8.184350e+00 1.669613e+00 4.640160e+00
         vertex 8.047494e+00 1.669382e+00 4.650463e+00
      endloop
   endfacet
   facet normal -6.995627e-02 5.491760e-01 -8.327736e-01
      outer loop
         vertex 9.257733e+00 2.793637e+00 5.290192e+00
         vertex 8.047494e+00 1.669382e+00 4.650463e+00
         vertex 9.210266e+00 2.877376e+00 5.349402e+00
      endloop
   endfacet
   facet normal -1.129014e-01 5.767891e-01 -8.090535e-01
      outer loop
         vertex 9.210266e+00 2.877376e+00 5.349402e+00
         vertex 8.047494e+00 1.669382e+00 4.650463e+00
         vertex 7.911749e+00 1.665652e+00 4.666747e+00
      endloop
   endfacet
   facet normal -1.164953e-01 5.793291e-01 -8.067259e-01
      outer loop
         vertex 9.210266e+00 2.877376e+00 5.349402e+00
         vertex 7.911749e+00 1.665652e+00 4.666747e+00
         vertex 9.163155e+00 2.957334e+00 5.413625e+00
      endloop
   endfacet
   facet normal -1.614003e-01 6.065207e-01 -7.785130e-01
      outer loop
         vertex 9.163155e+00 2.957334e+00 5.413625e+00
         vertex 7.911749e+00 1.665652e+00 4.666747e+00
         vertex 7.777824e+00 1.658455e+00 4.688905e+00
      endloop
   endfacet
   facet normal -1.625937e-01 6.073110e-01 -7.776482e-01
      outer loop
         vertex 9.163155e+00 2.957334e+00 5.413625e+00
         vertex 7.777824e+00 1.658455e+00 4.688905e+00
         vertex 9.116578e+00 3.033212e+00 5.482621e+00
      endloop
   endfacet
   facet normal -3.615867e-02 -8.654617e-01 -4.996686e-01
      outer loop
         vertex 7.877930e+00 1.524749e+00 4.633063e+00
         vertex 7.772761e+00 1.537291e+00 4.618950e+00
         vertex 7.906687e+00 1.544488e+00 4.596793e+00
      endloop
   endfacet
   facet normal -3.615988e-02 -8.654612e-01 -4.996693e-01
      outer loop
         vertex 7.877930e+00 1.524749e+00 4.633063e+00
         vertex 7.906687e+00 1.544488e+00 4.596793e+00
         vertex 8.013629e+00 1.511766e+00 4.645731e+00
      endloop
   endfacet
   facet normal -3.615882e-02 -8.654603e-01 -4.996710e-01
      outer loop
         vertex 8.013629e+00 1.511766e+00 4.645731e+00
         vertex 7.906687e+00 1.544488e+00 4.596793e+00
         vertex 8.042432e+00 1.548218e+00 4.580509e+00
      endloop
   endfacet
   facet normal -3.615859e-02 -8.654603e-01 -4.996709e-01
      outer loop
         vertex 8.013629e+00 1.511766e+00 4.645731e+00
         vertex 8.042432e+00 1.548218e+00 4.580509e+00
         vertex 8.150802e+00 1.502200e+00 4.652372e+00
      endloop
   endfacet
   facet normal -3.615729e-02 -8.654595e-01 -4.996723e-01
      outer loop
         vertex 8.150802e+00 1.502200e+00 4.652372e+00
         vertex 8.042432e+00 1.548218e+00 4.580509e+00
         vertex 8.179288e+00 1.548449e+00 4.570206e+00
      endloop
   endfacet
   facet normal -3.615983e-02 -8.654591e-01 -4.996730e-01
      outer loop
         vertex 8.150802e+00 1.502200e+00 4.652372e+00
         vertex 8.179288e+00 1.548449e+00 4.570206e+00
         vertex 8.288396e+00 1.496133e+00 4.652923e+00
      endloop
   endfacet
   facet normal -3.616061e-02 -8.654595e-01 -4.996722e-01
      outer loop
         vertex 8.288396e+00 1.496133e+00 4.652923e+00
         vertex 8.179288e+00 1.548449e+00 4.570206e+00
         vertex 8.288396e+00 1.546133e+00 4.566321e+00
      endloop
   endfacet
   facet normal -3.615884e-02 -8.654595e-01 -4.996722e-01
      outer loop
         vertex 8.288396e+00 1.496133e+00 4.652923e+00
         vertex 8.288396e+00 1.546133e+00 4.566321e+00
         vertex 9.036233e+00 1.472700e+00 4.639394e+00
      endloop
   endfacet
   facet normal -3.615830e-02 -8.654575e-01 -4.996757e-01
      outer loop
         vertex 9.036233e+00 1.472700e+00 4.639394e+00
         vertex 8.288396e+00 1.546133e+00 4.566321e+00
         vertex 9.036233e+00 1.522700e+00 4.552791e+00
      endloop
   endfacet
   facet normal -3.615663e-02 -8.654576e-01 -4.996757e-01
      outer loop
         vertex 9.036233e+00 1.472700e+00 4.639394e+00
         vertex 9.036233e+00 1.522700e+00 4.552791e+00
         vertex 9.123752e+00 1.471035e+00 4.635944e+00
      endloop
   endfacet
   facet normal -3.615917e-02 -8.654587e-01 -4.996737e-01
      outer loop
         vertex 9.123752e+00 1.471035e+00 4.635944e+00
         vertex 9.036233e+00 1.522700e+00 4.552791e+00
         vertex 9.147926e+00 1.517445e+00 4.553811e+00
      endloop
   endfacet
   facet normal -3.615884e-02 -8.654587e-01 -4.996737e-01
      outer loop
         vertex 9.123752e+00 1.471035e+00 4.635944e+00
         vertex 9.147926e+00 1.517445e+00 4.553811e+00
         vertex 9.235041e+00 1.472045e+00 4.626142e+00
      endloop
   endfacet
   facet normal -3.616106e-02 -8.654598e-01 -4.996717e-01
      outer loop
         vertex 9.235041e+00 1.472045e+00 4.626142e+00
         vertex 9.147926e+00 1.517445e+00 4.553811e+00
         vertex 9.259282e+00 1.508688e+00 4.560921e+00
      endloop
   endfacet
   facet normal -3.615857e-02 -8.654603e-01 -4.996710e-01
      outer loop
         vertex 9.235041e+00 1.472045e+00 4.626142e+00
         vertex 9.259282e+00 1.508688e+00 4.560921e+00
         vertex 9.345633e+00 1.476572e+00 4.610298e+00
      endloop
   endfacet
   facet normal -3.615912e-02 -8.654606e-01 -4.996703e-01
      outer loop
         vertex 9.345633e+00 1.476572e+00 4.610298e+00
         vertex 9.259282e+00 1.508688e+00 4.560921e+00
         vertex 9.369515e+00 1.496494e+00 4.574064e+00
      endloop
   endfacet
   facet normal -3.615607e-02 -8.654616e-01 -4.996688e-01
      outer loop
         vertex 9.345633e+00 1.476572e+00 4.610298e+00
         vertex 9.369515e+00 1.496494e+00 4.574064e+00
         vertex 9.454787e+00 1.484585e+00 4.588520e+00
      endloop
   endfacet
   facet normal -2.547397e-02 -4.990389e-01 8.662051e-01
      outer loop
         vertex 8.288396e+00 1.496133e+00 4.652923e+00
         vertex 8.293458e+00 1.617298e+00 4.722877e+00
         vertex 8.155864e+00 1.623365e+00 4.722326e+00
      endloop
   endfacet
   facet normal -2.547484e-02 -4.990396e-01 8.662047e-01
      outer loop
         vertex 8.288396e+00 1.496133e+00 4.652923e+00
         vertex 8.155864e+00 1.623365e+00 4.722326e+00
         vertex 8.150802e+00 1.502200e+00 4.652372e+00
      endloop
   endfacet
   facet normal -7.646660e-02 -4.961384e-01 8.648697e-01
      outer loop
         vertex 8.150802e+00 1.502200e+00 4.652372e+00
         vertex 8.155864e+00 1.623365e+00 4.722326e+00
         vertex 8.018691e+00 1.632930e+00 4.715685e+00
      endloop
   endfacet
   facet normal -7.646660e-02 -4.961384e-01 8.648697e-01
      outer loop
         vertex 8.150802e+00 1.502200e+00 4.652372e+00
         vertex 8.018691e+00 1.632930e+00 4.715685e+00
         vertex 8.013629e+00 1.511766e+00 4.645731e+00
      endloop
   endfacet
   facet normal -1.274704e-01 -4.919218e-01 8.612573e-01
      outer loop
         vertex 8.013629e+00 1.511766e+00 4.645731e+00
         vertex 8.018691e+00 1.632930e+00 4.715685e+00
         vertex 7.882993e+00 1.645913e+00 4.703017e+00
      endloop
   endfacet
   facet normal -1.274704e-01 -4.919218e-01 8.612573e-01
      outer loop
         vertex 8.013629e+00 1.511766e+00 4.645731e+00
         vertex 7.882993e+00 1.645913e+00 4.703017e+00
         vertex 7.877930e+00 1.524749e+00 4.633063e+00
      endloop
   endfacet
   facet normal -1.729569e-01 -4.870355e-01 8.560855e-01
      outer loop
         vertex 7.877930e+00 1.524749e+00 4.633063e+00
         vertex 7.882993e+00 1.645913e+00 4.703017e+00
         vertex 7.777824e+00 1.658455e+00 4.688905e+00
      endloop
   endfacet
   facet normal -1.729566e-01 -4.870353e-01 8.560856e-01
      outer loop
         vertex 7.877930e+00 1.524749e+00 4.633063e+00
         vertex 7.777824e+00 1.658455e+00 4.688905e+00
         vertex 7.772761e+00 1.537291e+00 4.618950e+00
      endloop
   endfacet
   facet normal -1.675272e-01 4.981749e-01 -8.507387e-01
      outer loop
         vertex 7.772761e+00 1.537291e+00 4.618950e+00
         vertex 7.777824e+00 1.658455e+00 4.688905e+00
         vertex 7.911749e+00 1.665652e+00 4.666747e+00
      endloop
   endfacet
   facet normal -1.675255e-01 4.981735e-01 -8.507399e-01
      outer loop
         vertex 7.772761e+00 1.537291e+00 4.618950e+00
         vertex 7.911749e+00 1.665652e+00 4.666747e+00
         vertex 7.906687e+00 1.544488e+00 4.596793e+00
      endloop
   endfacet
   facet normal -1.166686e-01 5.002363e-01 -8.579931e-01
      outer loop
         vertex 7.906687e+00 1.544488e+00 4.596793e+00
         vertex 7.911749e+00 1.665652e+00 4.666747e+00
         vertex 8.047494e+00 1.669382e+00 4.650463e+00
      endloop
   endfacet
   facet normal -1.166686e-01 5.002363e-01 -8.579931e-01
      outer loop
         vertex 7.906687e+00 1.544488e+00 4.596793e+00
         vertex 8.047494e+00 1.669382e+00 4.650463e+00
         vertex 8.042432e+00 1.548218e+00 4.580509e+00
      endloop
   endfacet
   facet normal -6.581232e-02 5.009764e-01 -8.629550e-01
      outer loop
         vertex 8.042432e+00 1.548218e+00 4.580509e+00
         vertex 8.047494e+00 1.669382e+00 4.650463e+00
         vertex 8.184350e+00 1.669613e+00 4.640160e+00
      endloop
   endfacet
   facet normal -6.581314e-02 5.009771e-01 -8.629546e-01
      outer loop
         vertex 8.042432e+00 1.548218e+00 4.580509e+00
         vertex 8.184350e+00 1.669613e+00 4.640160e+00
         vertex 8.179288e+00 1.548449e+00 4.570206e+00
      endloop
   endfacet
   facet normal -2.019485e-02 5.005310e-01 -8.654830e-01
      outer loop
         vertex 8.179288e+00 1.548449e+00 4.570206e+00
         vertex 8.184350e+00 1.669613e+00 4.640160e+00
         vertex 8.293458e+00 1.667298e+00 4.636275e+00
      endloop
   endfacet
   facet normal -2.019426e-02 5.005306e-01 -8.654833e-01
      outer loop
         vertex 8.179288e+00 1.548449e+00 4.570206e+00
         vertex 8.293458e+00 1.667298e+00 4.636275e+00
         vertex 8.288396e+00 1.546133e+00 4.566321e+00
      endloop
   endfacet
   facet normal 3.137883e-02 4.987708e-01 -8.661657e-01
      outer loop
         vertex 9.036233e+00 1.522700e+00 4.552791e+00
         vertex 9.041296e+00 1.643864e+00 4.622746e+00
         vertex 9.152988e+00 1.638609e+00 4.623766e+00
      endloop
   endfacet
   facet normal 3.137896e-02 4.987707e-01 -8.661658e-01
      outer loop
         vertex 9.036233e+00 1.522700e+00 4.552791e+00
         vertex 9.152988e+00 1.638609e+00 4.623766e+00
         vertex 9.147926e+00 1.517445e+00 4.553811e+00
      endloop
   endfacet
   facet normal 9.406507e-02 4.948329e-01 -8.638820e-01
      outer loop
         vertex 9.147926e+00 1.517445e+00 4.553811e+00
         vertex 9.152988e+00 1.638609e+00 4.623766e+00
         vertex 9.264344e+00 1.629852e+00 4.630875e+00
      endloop
   endfacet
   facet normal 9.406612e-02 4.948321e-01 -8.638824e-01
      outer loop
         vertex 9.147926e+00 1.517445e+00 4.553811e+00
         vertex 9.264344e+00 1.629852e+00 4.630875e+00
         vertex 9.259282e+00 1.508688e+00 4.560921e+00
      endloop
   endfacet
   facet normal 1.564090e-01 4.889366e-01 -8.581825e-01
      outer loop
         vertex 9.259282e+00 1.508688e+00 4.560921e+00
         vertex 9.264344e+00 1.629852e+00 4.630875e+00
         vertex 9.374577e+00 1.617658e+00 4.644018e+00
      endloop
   endfacet
   facet normal 1.564090e-01 4.889366e-01 -8.581825e-01
      outer loop
         vertex 9.259282e+00 1.508688e+00 4.560921e+00
         vertex 9.374577e+00 1.617658e+00 4.644018e+00
         vertex 9.369515e+00 1.496494e+00 4.574064e+00
      endloop
   endfacet
   facet normal 2.114663e-01 4.820510e-01 -8.502404e-01
      outer loop
         vertex 9.369515e+00 1.496494e+00 4.574064e+00
         vertex 9.374577e+00 1.617658e+00 4.644018e+00
         vertex 9.459850e+00 1.605749e+00 4.658475e+00
      endloop
   endfacet
   facet normal 2.114651e-01 4.820519e-01 -8.502403e-01
      outer loop
         vertex 9.369515e+00 1.496494e+00 4.574064e+00
         vertex 9.459850e+00 1.605749e+00 4.658475e+00
         vertex 9.454787e+00 1.484585e+00 4.588520e+00
      endloop
   endfacet
   facet normal 2.047747e-01 -4.958074e-01 8.439445e-01
      outer loop
         vertex 9.454787e+00 1.484585e+00 4.588520e+00
         vertex 9.459850e+00 1.605749e+00 4.658475e+00
         vertex 9.350695e+00 1.597736e+00 4.680252e+00
      endloop
   endfacet
   facet normal 2.047747e-01 -4.958074e-01 8.439445e-01
      outer loop
         vertex 9.454787e+00 1.484585e+00 4.588520e+00
         vertex 9.350695e+00 1.597736e+00 4.680252e+00
         vertex 9.345633e+00 1.476572e+00 4.610298e+00
      endloop
   endfacet
   facet normal 1.428613e-01 -4.993414e-01 8.545460e-01
      outer loop
         vertex 9.345633e+00 1.476572e+00 4.610298e+00
         vertex 9.350695e+00 1.597736e+00 4.680252e+00
         vertex 9.240103e+00 1.593209e+00 4.696096e+00
      endloop
   endfacet
   facet normal 1.428613e-01 -4.993414e-01 8.545460e-01
      outer loop
         vertex 9.345633e+00 1.476572e+00 4.610298e+00
         vertex 9.240103e+00 1.593209e+00 4.696096e+00
         vertex 9.235041e+00 1.472045e+00 4.626142e+00
      endloop
   endfacet
   facet normal 8.045347e-02 -5.008983e-01 8.617587e-01
      outer loop
         vertex 9.235041e+00 1.472045e+00 4.626142e+00
         vertex 9.240103e+00 1.593209e+00 4.696096e+00
         vertex 9.128814e+00 1.592199e+00 4.705899e+00
      endloop
   endfacet
   facet normal 8.045347e-02 -5.008983e-01 8.617587e-01
      outer loop
         vertex 9.235041e+00 1.472045e+00 4.626142e+00
         vertex 9.128814e+00 1.592199e+00 4.705899e+00
         vertex 9.123752e+00 1.471035e+00 4.635944e+00
      endloop
   endfacet
   facet normal 2.458041e-02 -5.006192e-01 8.653185e-01
      outer loop
         vertex 9.123752e+00 1.471035e+00 4.635944e+00
         vertex 9.128814e+00 1.592199e+00 4.705899e+00
         vertex 9.041296e+00 1.593865e+00 4.709348e+00
      endloop
   endfacet
   facet normal 2.458313e-02 -5.006178e-01 8.653193e-01
      outer loop
         vertex 9.123752e+00 1.471035e+00 4.635944e+00
         vertex 9.041296e+00 1.593865e+00 4.709348e+00
         vertex 9.036233e+00 1.472700e+00 4.639394e+00
      endloop
   endfacet
endsolid