solid growler2 - growler.step-1 EA-18G Growler-14.step-1
   facet normal -5.667070e-03 0.000000e+00 9.999839e-01
      outer loop
         vertex 1.086279e+01 1.424061e+00 3.575332e+00
         vertex 1.091604e+01 1.443825e+00 3.575634e+00
         vertex 1.086279e+01 1.463590e+00 3.575332e+00
      endloop
   endfacet
   facet normal -5.666849e-03 0.000000e+00 9.999839e-01
      outer loop
         vertex 1.086279e+01 1.424061e+00 3.575332e+00
         vertex 1.086279e+01 1.463590e+00 3.575332e+00
         vertex 1.079503e+01 1.406486e+00 3.574948e+00
      endloop
   endfacet
   facet normal -5.666849e-03 0.000000e+00 9.999839e-01
      outer loop
         vertex 1.079503e+01 1.406486e+00 3.574948e+00
         vertex 1.086279e+01 1.463590e+00 3.575332e+00
         vertex 1.079503e+01 1.481165e+00 3.574948e+00
      endloop
   endfacet
   facet normal -5.666774e-03 0.000000e+00 9.999839e-01
      outer loop
         vertex 1.079503e+01 1.406486e+00 3.574948e+00
         vertex 1.079503e+01 1.481165e+00 3.574948e+00
         vertex 1.072532e+01 1.396398e+00 3.574553e+00
      endloop
   endfacet
   facet normal -5.666774e-03 0.000000e+00 9.999839e-01
      outer loop
         vertex 1.072532e+01 1.396398e+00 3.574553e+00
         vertex 1.079503e+01 1.481165e+00 3.574948e+00
         vertex 1.072532e+01 1.491253e+00 3.574553e+00
      endloop
   endfacet
   facet normal -5.667249e-03 0.000000e+00 9.999839e-01
      outer loop
         vertex 1.072532e+01 1.396398e+00 3.574553e+00
         vertex 1.072532e+01 1.491253e+00 3.574553e+00
         vertex 1.066757e+01 1.393825e+00 3.574225e+00
      endloop
   endfacet
   facet normal -5.667249e-03 0.000000e+00 9.999839e-01
      outer loop
         vertex 1.066757e+01 1.393825e+00 3.574225e+00
         vertex 1.072532e+01 1.491253e+00 3.574553e+00
         vertex 1.066757e+01 1.493825e+00 3.574225e+00
      endloop
   endfacet
   facet normal -5.666910e-03 0.000000e+00 9.999839e-01
      outer loop
         vertex 1.066757e+01 1.393825e+00 3.574225e+00
         vertex 1.066757e+01 1.493825e+00 3.574225e+00
         vertex 9.464415e+00 1.393825e+00 3.567407e+00
      endloop
   endfacet
   facet normal -5.666910e-03 0.000000e+00 9.999839e-01
      outer loop
         vertex 9.464415e+00 1.393825e+00 3.567407e+00
         vertex 1.066757e+01 1.493825e+00 3.574225e+00
         vertex 9.464415e+00 1.493825e+00 3.567407e+00
      endloop
   endfacet
   facet normal -5.666743e-03 0.000000e+00 9.999839e-01
      outer loop
         vertex 9.464415e+00 1.393825e+00 3.567407e+00
         vertex 9.464415e+00 1.493825e+00 3.567407e+00
         vertex 9.384604e+00 1.397001e+00 3.566955e+00
      endloop
   endfacet
   facet normal -5.666743e-03 0.000000e+00 9.999839e-01
      outer loop
         vertex 9.384604e+00 1.397001e+00 3.566955e+00
         vertex 9.464415e+00 1.493825e+00 3.567407e+00
         vertex 9.384604e+00 1.490650e+00 3.566955e+00
      endloop
   endfacet
   facet normal -5.667222e-03 0.000000e+00 9.999839e-01
      outer loop
         vertex 9.384604e+00 1.397001e+00 3.566955e+00
         vertex 9.384604e+00 1.490650e+00 3.566955e+00
         vertex 9.305807e+00 1.406486e+00 3.566508e+00
      endloop
   endfacet
   facet normal -5.667222e-03 0.000000e+00 9.999839e-01
      outer loop
         vertex 9.305807e+00 1.406486e+00 3.566508e+00
         vertex 9.384604e+00 1.490650e+00 3.566955e+00
         vertex 9.305807e+00 1.481165e+00 3.566508e+00
      endloop
   endfacet
   facet normal -5.666566e-03 0.000000e+00 9.999839e-01
      outer loop
         vertex 9.305807e+00 1.406486e+00 3.566508e+00
         vertex 9.305807e+00 1.481165e+00 3.566508e+00
         vertex 9.229024e+00 1.422160e+00 3.566073e+00
      endloop
   endfacet
   facet normal -5.666566e-03 0.000000e+00 9.999839e-01
      outer loop
         vertex 9.229024e+00 1.422160e+00 3.566073e+00
         vertex 9.305807e+00 1.481165e+00 3.566508e+00
         vertex 9.229024e+00 1.465491e+00 3.566073e+00
      endloop
   endfacet
   facet normal -5.666991e-03 0.000000e+00 9.999839e-01
      outer loop
         vertex 9.229024e+00 1.422160e+00 3.566073e+00
         vertex 9.229024e+00 1.465491e+00 3.566073e+00
         vertex 9.155231e+00 1.443825e+00 3.565655e+00
      endloop
   endfacet
   facet normal 0.000000e+00 1.000000e+00 0.000000e+00
      outer loop
         vertex 1.141691e+01 1.493825e+00 2.223757e+00
         vertex 1.136390e+01 1.493825e+00 2.149289e+00
         vertex 1.066757e+01 1.493825e+00 3.574225e+00
      endloop
   endfacet
   facet normal 0.000000e+00 1.000000e+00 0.000000e+00
      outer loop
         vertex 1.066757e+01 1.493825e+00 3.574225e+00
         vertex 1.136390e+01 1.493825e+00 2.149289e+00
         vertex 1.090770e+01 1.493825e+00 2.149289e+00
      endloop
   endfacet
   facet normal 0.000000e+00 1.000000e+00 0.000000e+00
      outer loop
         vertex 1.066757e+01 1.493825e+00 3.574225e+00
         vertex 1.090770e+01 1.493825e+00 2.149289e+00
         vertex 9.464415e+00 1.493825e+00 3.567407e+00
      endloop
   endfacet
   facet normal -2.694722e-01 9.231303e-01 -2.742540e-01
      outer loop
         vertex 1.081854e+01 1.443825e+00 1.931344e+00
         vertex 9.155231e+00 1.443825e+00 3.565655e+00
         vertex 9.229024e+00 1.465491e+00 3.566073e+00
      endloop
   endfacet
   facet normal -2.694719e-01 9.231305e-01 -2.742537e-01
      outer loop
         vertex 1.081854e+01 1.443825e+00 1.931344e+00
         vertex 9.229024e+00 1.465491e+00 3.566073e+00
         vertex 1.083982e+01 1.465491e+00 1.983361e+00
      endloop
   endfacet
   facet normal -1.949605e-01 9.605310e-01 -1.984201e-01
      outer loop
         vertex 1.083982e+01 1.465491e+00 1.983361e+00
         vertex 9.229024e+00 1.465491e+00 3.566073e+00
         vertex 9.305807e+00 1.481165e+00 3.566508e+00
      endloop
   endfacet
   facet normal -1.949615e-01 9.605306e-01 -1.984211e-01
      outer loop
         vertex 1.083982e+01 1.465491e+00 1.983361e+00
         vertex 9.305807e+00 1.481165e+00 3.566508e+00
         vertex 1.086196e+01 1.481165e+00 2.037485e+00
      endloop
   endfacet
   facet normal -1.179747e-01 9.857310e-01 -1.200682e-01
      outer loop
         vertex 1.086196e+01 1.481165e+00 2.037485e+00
         vertex 9.305807e+00 1.481165e+00 3.566508e+00
         vertex 9.384604e+00 1.490650e+00 3.566955e+00
      endloop
   endfacet
   facet normal -1.179738e-01 9.857312e-01 -1.200672e-01
      outer loop
         vertex 1.086196e+01 1.481165e+00 2.037485e+00
         vertex 9.384604e+00 1.490650e+00 3.566955e+00
         vertex 1.088468e+01 1.490650e+00 2.093030e+00
      endloop
   endfacet
   facet normal -3.948921e-02 9.984114e-01 -4.018996e-02
      outer loop
         vertex 1.088468e+01 1.490650e+00 2.093030e+00
         vertex 9.384604e+00 1.490650e+00 3.566955e+00
         vertex 9.464415e+00 1.493825e+00 3.567407e+00
      endloop
   endfacet
   facet normal -3.948905e-02 9.984114e-01 -4.018980e-02
      outer loop
         vertex 1.088468e+01 1.490650e+00 2.093030e+00
         vertex 9.464415e+00 1.493825e+00 3.567407e+00
         vertex 1.090770e+01 1.493825e+00 2.149289e+00
      endloop
   endfacet
   facet normal 0.000000e+00 9.984114e-01 -5.634363e-02
      outer loop
         vertex 1.090770e+01 1.493825e+00 2.149289e+00
         vertex 1.136390e+01 1.493825e+00 2.149289e+00
         vertex 1.139290e+01 1.490650e+00 2.093030e+00
      endloop
   endfacet
   facet normal 0.000000e+00 9.984114e-01 -5.634363e-02
      outer loop
         vertex 1.090770e+01 1.493825e+00 2.149289e+00
         vertex 1.139290e+01 1.490650e+00 2.093030e+00
         vertex 1.088468e+01 1.490650e+00 2.093030e+00
      endloop
   endfacet
   facet normal 0.000000e+00 9.857309e-01 -1.683285e-01
      outer loop
         vertex 1.088468e+01 1.490650e+00 2.093030e+00
         vertex 1.139290e+01 1.490650e+00 2.093030e+00
         vertex 1.142154e+01 1.481165e+00 2.037485e+00
      endloop
   endfacet
   facet normal 0.000000e+00 9.857309e-01 -1.683285e-01
      outer loop
         vertex 1.088468e+01 1.490650e+00 2.093030e+00
         vertex 1.142154e+01 1.481165e+00 2.037485e+00
         vertex 1.086196e+01 1.481165e+00 2.037485e+00
      endloop
   endfacet
   facet normal 0.000000e+00 9.605311e-01 -2.781728e-01
      outer loop
         vertex 1.086196e+01 1.481165e+00 2.037485e+00
         vertex 1.142154e+01 1.481165e+00 2.037485e+00
         vertex 1.144945e+01 1.465491e+00 1.983361e+00
      endloop
   endfacet
   facet normal 0.000000e+00 9.605311e-01 -2.781728e-01
      outer loop
         vertex 1.086196e+01 1.481165e+00 2.037485e+00
         vertex 1.144945e+01 1.465491e+00 1.983361e+00
         vertex 1.083982e+01 1.465491e+00 1.983361e+00
      endloop
   endfacet
   facet normal 0.000000e+00 9.231302e-01 -3.844875e-01
      outer loop
         vertex 1.083982e+01 1.465491e+00 1.983361e+00
         vertex 1.144945e+01 1.465491e+00 1.983361e+00
         vertex 1.147627e+01 1.443825e+00 1.931344e+00
      endloop
   endfacet
   facet normal 0.000000e+00 9.231302e-01 -3.844875e-01
      outer loop
         vertex 1.083982e+01 1.465491e+00 1.983361e+00
         vertex 1.147627e+01 1.443825e+00 1.931344e+00
         vertex 1.081854e+01 1.443825e+00 1.931344e+00
      endloop
   endfacet
   facet normal 4.590101e-02 9.984114e-01 -3.267616e-02
      outer loop
         vertex 1.136390e+01 1.493825e+00 2.149289e+00
         vertex 1.141691e+01 1.493825e+00 2.223757e+00
         vertex 1.148331e+01 1.490650e+00 2.220032e+00
      endloop
   endfacet
   facet normal 4.590079e-02 9.984114e-01 -3.267579e-02
      outer loop
         vertex 1.136390e+01 1.493825e+00 2.149289e+00
         vertex 1.148331e+01 1.490650e+00 2.220032e+00
         vertex 1.139290e+01 1.490650e+00 2.093030e+00
      endloop
   endfacet
   facet normal 1.421975e-01 9.846486e-01 -1.012273e-01
      outer loop
         vertex 1.139290e+01 1.490650e+00 2.093030e+00
         vertex 1.148331e+01 1.490650e+00 2.220032e+00
         vertex 1.155613e+01 1.479715e+00 2.215947e+00
      endloop
   endfacet
   facet normal 1.388549e-01 9.855797e-01 -9.670582e-02
      outer loop
         vertex 1.139290e+01 1.490650e+00 2.093030e+00
         vertex 1.155613e+01 1.479715e+00 2.215947e+00
         vertex 1.142154e+01 1.481165e+00 2.037485e+00
      endloop
   endfacet
   facet normal 2.306239e-01 9.587563e-01 -1.661292e-01
      outer loop
         vertex 1.142154e+01 1.481165e+00 2.037485e+00
         vertex 1.155613e+01 1.479715e+00 2.215947e+00
         vertex 1.159522e+01 1.465491e+00 2.188120e+00
      endloop
   endfacet
   facet normal 2.266160e-01 9.605310e-01 -1.613236e-01
      outer loop
         vertex 1.142154e+01 1.481165e+00 2.037485e+00
         vertex 1.159522e+01 1.465491e+00 2.188120e+00
         vertex 1.144945e+01 1.465491e+00 1.983361e+00
      endloop
   endfacet
   facet normal 3.132268e-01 9.231299e-01 -2.229802e-01
      outer loop
         vertex 1.144945e+01 1.465491e+00 1.983361e+00
         vertex 1.159522e+01 1.465491e+00 2.188120e+00
         vertex 1.163759e+01 1.443825e+00 2.157953e+00
      endloop
   endfacet
   facet normal 3.132272e-01 9.231297e-01 -2.229806e-01
      outer loop
         vertex 1.144945e+01 1.465491e+00 1.983361e+00
         vertex 1.163759e+01 1.443825e+00 2.157953e+00
         vertex 1.147627e+01 1.443825e+00 1.931344e+00
      endloop
   endfacet
   facet normal 2.369521e-01 9.587157e-01 -1.572192e-01
      outer loop
         vertex 1.161903e+01 1.463590e+00 2.212418e+00
         vertex 1.159522e+01 1.465491e+00 2.188120e+00
         vertex 1.155613e+01 1.479715e+00 2.215947e+00
      endloop
   endfacet
   facet normal 3.067558e-01 9.219670e-01 -2.363845e-01
      outer loop
         vertex 1.165397e+01 1.447779e+00 2.195283e+00
         vertex 1.159522e+01 1.465491e+00 2.188120e+00
         vertex 1.165490e+01 1.448764e+00 2.200333e+00
      endloop
   endfacet
   facet normal 3.056256e-01 9.246511e-01 -2.271856e-01
      outer loop
         vertex 1.165490e+01 1.448764e+00 2.200333e+00
         vertex 1.159522e+01 1.465491e+00 2.188120e+00
         vertex 1.161903e+01 1.463590e+00 2.212418e+00
      endloop
   endfacet
   facet normal 3.023056e-01 9.235984e-01 -2.357484e-01
      outer loop
         vertex 1.165490e+01 1.448764e+00 2.200333e+00
         vertex 1.161903e+01 1.463590e+00 2.212418e+00
         vertex 1.165597e+01 1.450970e+00 2.210346e+00
      endloop
   endfacet
   facet normal 3.067618e-01 9.219268e-01 -2.365334e-01
      outer loop
         vertex 1.165397e+01 1.447779e+00 2.195283e+00
         vertex 1.165122e+01 1.446058e+00 2.185012e+00
         vertex 1.159522e+01 1.465491e+00 2.188120e+00
      endloop
   endfacet
   facet normal 2.977774e-01 9.062125e-01 -3.001792e-01
      outer loop
         vertex 1.159522e+01 1.465491e+00 2.188120e+00
         vertex 1.165122e+01 1.446058e+00 2.185012e+00
         vertex 1.164549e+01 1.443288e+00 2.170967e+00
      endloop
   endfacet
   facet normal 3.478436e-01 9.214285e-01 -1.731312e-01
      outer loop
         vertex 1.159522e+01 1.465491e+00 2.188120e+00
         vertex 1.164549e+01 1.443288e+00 2.170967e+00
         vertex 1.163759e+01 1.443825e+00 2.157953e+00
      endloop
   endfacet
   facet normal 9.668950e-01 1.406432e-02 -2.547868e-01
      outer loop
         vertex 1.165122e+01 1.441699e+00 2.184761e+00
         vertex 1.165122e+01 1.446058e+00 2.185012e+00
         vertex 1.165402e+01 1.439915e+00 2.195276e+00
      endloop
   endfacet
   facet normal 9.657711e-01 5.967859e-03 -2.593271e-01
      outer loop
         vertex 1.165402e+01 1.439915e+00 2.195276e+00
         vertex 1.165122e+01 1.446058e+00 2.185012e+00
         vertex 1.165397e+01 1.447779e+00 2.195283e+00
      endloop
   endfacet
   facet normal 9.833191e-01 5.997158e-03 -1.817901e-01
      outer loop
         vertex 1.165402e+01 1.439915e+00 2.195276e+00
         vertex 1.165397e+01 1.447779e+00 2.195283e+00
         vertex 1.165474e+01 1.439146e+00 2.199180e+00
      endloop
   endfacet
   facet normal 9.832009e-01 5.694286e-03 -1.824377e-01
      outer loop
         vertex 1.165474e+01 1.439146e+00 2.199180e+00
         vertex 1.165397e+01 1.447779e+00 2.195283e+00
         vertex 1.165490e+01 1.448764e+00 2.200333e+00
      endloop
   endfacet
   facet normal 9.939308e-01 -3.174368e-03 -1.099609e-01
      outer loop
         vertex 1.165474e+01 1.439146e+00 2.199180e+00
         vertex 1.165490e+01 1.448764e+00 2.200333e+00
         vertex 1.165597e+01 1.436681e+00 2.210346e+00
      endloop
   endfacet
   facet normal 9.127221e-01 1.088964e-01 -3.938018e-01
      outer loop
         vertex 1.164549e+01 1.443288e+00 2.170967e+00
         vertex 1.165122e+01 1.446058e+00 2.185012e+00
         vertex 1.164965e+01 1.442309e+00 2.180338e+00
      endloop
   endfacet
   facet normal 9.432548e-01 1.850377e-02 -3.315539e-01
      outer loop
         vertex 1.164965e+01 1.442309e+00 2.180338e+00
         vertex 1.165122e+01 1.446058e+00 2.185012e+00
         vertex 1.165122e+01 1.441699e+00 2.184761e+00
      endloop
   endfacet
   facet normal 9.462135e-01 4.347323e-02 3.206090e-01
      outer loop
         vertex 1.164818e+01 1.443574e+00 2.255082e+00
         vertex 1.165303e+01 1.442318e+00 2.240941e+00
         vertex 1.165316e+01 1.445506e+00 2.240126e+00
      endloop
   endfacet
   facet normal 9.848706e-01 4.259100e-03 1.732391e-01
      outer loop
         vertex 1.165316e+01 1.445506e+00 2.240126e+00
         vertex 1.165303e+01 1.442318e+00 2.240941e+00
         vertex 1.165567e+01 1.439997e+00 2.225982e+00
      endloop
   endfacet
   facet normal 9.852213e-01 1.021553e-02 1.709815e-01
      outer loop
         vertex 1.165316e+01 1.445506e+00 2.240126e+00
         vertex 1.165567e+01 1.439997e+00 2.225982e+00
         vertex 1.165566e+01 1.447775e+00 2.225561e+00
      endloop
   endfacet
   facet normal 9.998243e-01 1.968470e-03 1.863887e-02
      outer loop
         vertex 1.165566e+01 1.447775e+00 2.225561e+00
         vertex 1.165567e+01 1.439997e+00 2.225982e+00
         vertex 1.165597e+01 1.436681e+00 2.210346e+00
      endloop
   endfacet
   facet normal 9.997985e-01 0.000000e+00 2.007369e-02
      outer loop
         vertex 1.165566e+01 1.447775e+00 2.225561e+00
         vertex 1.165597e+01 1.436681e+00 2.210346e+00
         vertex 1.165597e+01 1.450970e+00 2.210346e+00
      endloop
   endfacet
   facet normal 9.943475e-01 0.000000e+00 -1.061747e-01
      outer loop
         vertex 1.165597e+01 1.450970e+00 2.210346e+00
         vertex 1.165597e+01 1.436681e+00 2.210346e+00
         vertex 1.165490e+01 1.448764e+00 2.200333e+00
      endloop
   endfacet
   facet normal 4.926768e-02 9.984114e-01 2.733719e-02
      outer loop
         vertex 1.148331e+01 1.490650e+00 2.220032e+00
         vertex 1.141691e+01 1.493825e+00 2.223757e+00
         vertex 1.066757e+01 1.493825e+00 3.574225e+00
      endloop
   endfacet
   facet normal 4.434923e-02 9.987187e-01 2.437368e-02
      outer loop
         vertex 1.066757e+01 1.493825e+00 3.574225e+00
         vertex 1.072532e+01 1.491253e+00 3.574553e+00
         vertex 1.148331e+01 1.490650e+00 2.220032e+00
      endloop
   endfacet
   facet normal 1.423206e-01 9.866466e-01 7.920413e-02
      outer loop
         vertex 1.148331e+01 1.490650e+00 2.220032e+00
         vertex 1.072532e+01 1.491253e+00 3.574553e+00
         vertex 1.079503e+01 1.481165e+00 3.574948e+00
      endloop
   endfacet
   facet normal 1.526157e-01 9.846734e-01 8.442010e-02
      outer loop
         vertex 1.148331e+01 1.490650e+00 2.220032e+00
         vertex 1.079503e+01 1.481165e+00 3.574948e+00
         vertex 1.155613e+01 1.479715e+00 2.215947e+00
      endloop
   endfacet
   facet normal 2.479564e-01 9.589146e-01 1.378421e-01
      outer loop
         vertex 1.155613e+01 1.479715e+00 2.215947e+00
         vertex 1.079503e+01 1.481165e+00 3.574948e+00
         vertex 1.086279e+01 1.463590e+00 3.575332e+00
      endloop
   endfacet
   facet normal 2.532512e-01 9.571403e-01 1.405216e-01
      outer loop
         vertex 1.155613e+01 1.479715e+00 2.215947e+00
         vertex 1.086279e+01 1.463590e+00 3.575332e+00
         vertex 1.161903e+01 1.463590e+00 2.212418e+00
      endloop
   endfacet
   facet normal 3.407498e-01 9.209459e-01 1.890720e-01
      outer loop
         vertex 1.086279e+01 1.463590e+00 3.575332e+00
         vertex 1.091604e+01 1.443825e+00 3.575634e+00
         vertex 1.161903e+01 1.463590e+00 2.212418e+00
      endloop
   endfacet
   facet normal 3.407479e-01 9.209468e-01 1.890711e-01
      outer loop
         vertex 1.161903e+01 1.463590e+00 2.212418e+00
         vertex 1.091604e+01 1.443825e+00 3.575634e+00
         vertex 1.164357e+01 1.443825e+00 2.264466e+00
      endloop
   endfacet
   facet normal 3.835768e-01 9.087836e-01 1.642599e-01
      outer loop
         vertex 1.161903e+01 1.463590e+00 2.212418e+00
         vertex 1.164357e+01 1.443825e+00 2.264466e+00
         vertex 1.164818e+01 1.443574e+00 2.255082e+00
      endloop
   endfacet
   facet normal 3.093460e-01 9.245797e-01 2.223905e-01
      outer loop
         vertex 1.164818e+01 1.443574e+00 2.255082e+00
         vertex 1.165316e+01 1.445506e+00 2.240126e+00
         vertex 1.161903e+01 1.463590e+00 2.212418e+00
      endloop
   endfacet
   facet normal 3.269355e-01 9.236201e-01 2.000978e-01
      outer loop
         vertex 1.161903e+01 1.463590e+00 2.212418e+00
         vertex 1.165316e+01 1.445506e+00 2.240126e+00
         vertex 1.165566e+01 1.447775e+00 2.225561e+00
      endloop
   endfacet
   facet normal 3.267757e-01 9.235883e-01 2.005051e-01
      outer loop
         vertex 1.161903e+01 1.463590e+00 2.212418e+00
         vertex 1.165566e+01 1.447775e+00 2.225561e+00
         vertex 1.165597e+01 1.450970e+00 2.210346e+00
      endloop
   endfacet
   facet normal 0.000000e+00 -1.000000e+00 0.000000e+00
      outer loop
         vertex 1.136390e+01 1.393825e+00 2.149289e+00
         vertex 1.141691e+01 1.393825e+00 2.223757e+00
         vertex 1.090770e+01 1.393825e+00 2.149289e+00
      endloop
   endfacet
   facet normal 0.000000e+00 -1.000000e+00 0.000000e+00
      outer loop
         vertex 1.090770e+01 1.393825e+00 2.149289e+00
         vertex 1.141691e+01 1.393825e+00 2.223757e+00
         vertex 1.066757e+01 1.393825e+00 3.574225e+00
      endloop
   endfacet
   facet normal 0.000000e+00 -1.000000e+00 0.000000e+00
      outer loop
         vertex 1.090770e+01 1.393825e+00 2.149289e+00
         vertex 1.066757e+01 1.393825e+00 3.574225e+00
         vertex 9.464415e+00 1.393825e+00 3.567407e+00
      endloop
   endfacet
   facet normal -3.949498e-02 -9.984110e-01 -4.019584e-02
      outer loop
         vertex 1.090770e+01 1.393825e+00 2.149289e+00
         vertex 9.464415e+00 1.393825e+00 3.567407e+00
         vertex 9.384604e+00 1.397001e+00 3.566955e+00
      endloop
   endfacet
   facet normal -3.949483e-02 -9.984110e-01 -4.019568e-02
      outer loop
         vertex 1.090770e+01 1.393825e+00 2.149289e+00
         vertex 9.384604e+00 1.397001e+00 3.566955e+00
         vertex 1.088468e+01 1.397001e+00 2.093030e+00
      endloop
   endfacet
   facet normal -1.179747e-01 -9.857310e-01 -1.200682e-01
      outer loop
         vertex 1.088468e+01 1.397001e+00 2.093030e+00
         vertex 9.384604e+00 1.397001e+00 3.566955e+00
         vertex 9.305807e+00 1.406486e+00 3.566508e+00
      endloop
   endfacet
   facet normal -1.179738e-01 -9.857312e-01 -1.200672e-01
      outer loop
         vertex 1.088468e+01 1.397001e+00 2.093030e+00
         vertex 9.305807e+00 1.406486e+00 3.566508e+00
         vertex 1.086196e+01 1.406486e+00 2.037485e+00
      endloop
   endfacet
   facet normal -1.949605e-01 -9.605310e-01 -1.984201e-01
      outer loop
         vertex 1.086196e+01 1.406486e+00 2.037485e+00
         vertex 9.305807e+00 1.406486e+00 3.566508e+00
         vertex 9.229024e+00 1.422160e+00 3.566073e+00
      endloop
   endfacet
   facet normal -1.949615e-01 -9.605306e-01 -1.984211e-01
      outer loop
         vertex 1.086196e+01 1.406486e+00 2.037485e+00
         vertex 9.229024e+00 1.422160e+00 3.566073e+00
         vertex 1.083982e+01 1.422160e+00 1.983361e+00
      endloop
   endfacet
   facet normal -2.694673e-01 -9.231332e-01 -2.742490e-01
      outer loop
         vertex 1.083982e+01 1.422160e+00 1.983361e+00
         vertex 9.229024e+00 1.422160e+00 3.566073e+00
         vertex 9.155231e+00 1.443825e+00 3.565655e+00
      endloop
   endfacet
   facet normal -2.694669e-01 -9.231334e-01 -2.742487e-01
      outer loop
         vertex 1.083982e+01 1.422160e+00 1.983361e+00
         vertex 9.155231e+00 1.443825e+00 3.565655e+00
         vertex 1.081854e+01 1.443825e+00 1.931344e+00
      endloop
   endfacet
   facet normal 0.000000e+00 -9.231331e-01 -3.844804e-01
      outer loop
         vertex 1.081854e+01 1.443825e+00 1.931344e+00
         vertex 1.147627e+01 1.443825e+00 1.931344e+00
         vertex 1.144945e+01 1.422160e+00 1.983361e+00
      endloop
   endfacet
   facet normal 0.000000e+00 -9.231331e-01 -3.844804e-01
      outer loop
         vertex 1.081854e+01 1.443825e+00 1.931344e+00
         vertex 1.144945e+01 1.422160e+00 1.983361e+00
         vertex 1.083982e+01 1.422160e+00 1.983361e+00
      endloop
   endfacet
   facet normal 0.000000e+00 -9.605311e-01 -2.781728e-01
      outer loop
         vertex 1.083982e+01 1.422160e+00 1.983361e+00
         vertex 1.144945e+01 1.422160e+00 1.983361e+00
         vertex 1.142154e+01 1.406486e+00 2.037485e+00
      endloop
   endfacet
   facet normal 0.000000e+00 -9.605311e-01 -2.781728e-01
      outer loop
         vertex 1.083982e+01 1.422160e+00 1.983361e+00
         vertex 1.142154e+01 1.406486e+00 2.037485e+00
         vertex 1.086196e+01 1.406486e+00 2.037485e+00
      endloop
   endfacet
   facet normal 0.000000e+00 -9.857309e-01 -1.683285e-01
      outer loop
         vertex 1.086196e+01 1.406486e+00 2.037485e+00
         vertex 1.142154e+01 1.406486e+00 2.037485e+00
         vertex 1.139290e+01 1.397001e+00 2.093030e+00
      endloop
   endfacet
   facet normal 0.000000e+00 -9.857309e-01 -1.683285e-01
      outer loop
         vertex 1.086196e+01 1.406486e+00 2.037485e+00
         vertex 1.139290e+01 1.397001e+00 2.093030e+00
         vertex 1.088468e+01 1.397001e+00 2.093030e+00
      endloop
   endfacet
   facet normal 0.000000e+00 -9.984110e-01 -5.635186e-02
      outer loop
         vertex 1.088468e+01 1.397001e+00 2.093030e+00
         vertex 1.139290e+01 1.397001e+00 2.093030e+00
         vertex 1.136390e+01 1.393825e+00 2.149289e+00
      endloop
   endfacet
   facet normal 0.000000e+00 -9.984110e-01 -5.635186e-02
      outer loop
         vertex 1.088468e+01 1.397001e+00 2.093030e+00
         vertex 1.136390e+01 1.393825e+00 2.149289e+00
         vertex 1.090770e+01 1.393825e+00 2.149289e+00
      endloop
   endfacet
   facet normal 3.153551e-01 -9.220374e-01 -2.244954e-01
      outer loop
         vertex 1.147627e+01 1.443825e+00 1.931344e+00
         vertex 1.163759e+01 1.443825e+00 2.157953e+00
         vertex 1.159739e+01 1.423109e+00 2.186570e+00
      endloop
   endfacet
   facet normal 3.126575e-01 -9.232424e-01 -2.233131e-01
      outer loop
         vertex 1.147627e+01 1.443825e+00 1.931344e+00
         vertex 1.159739e+01 1.423109e+00 2.186570e+00
         vertex 1.144945e+01 1.422160e+00 1.983361e+00
      endloop
   endfacet
   facet normal 2.340918e-01 -9.579460e-01 -1.659533e-01
      outer loop
         vertex 1.144945e+01 1.422160e+00 1.983361e+00
         vertex 1.159739e+01 1.423109e+00 2.186570e+00
         vertex 1.155613e+01 1.407935e+00 2.215947e+00
      endloop
   endfacet
   facet normal 2.252659e-01 -9.607221e-01 -1.620751e-01
      outer loop
         vertex 1.144945e+01 1.422160e+00 1.983361e+00
         vertex 1.155613e+01 1.407935e+00 2.215947e+00
         vertex 1.142154e+01 1.406486e+00 2.037485e+00
      endloop
   endfacet
   facet normal 1.423238e-01 -9.848235e-01 -9.933058e-02
      outer loop
         vertex 1.142154e+01 1.406486e+00 2.037485e+00
         vertex 1.155613e+01 1.407935e+00 2.215947e+00
         vertex 1.148331e+01 1.397001e+00 2.220032e+00
      endloop
   endfacet
   facet normal 1.371309e-01 -9.857309e-01 -9.762055e-02
      outer loop
         vertex 1.142154e+01 1.406486e+00 2.037485e+00
         vertex 1.148331e+01 1.397001e+00 2.220032e+00
         vertex 1.139290e+01 1.397001e+00 2.093030e+00
      endloop
   endfacet
   facet normal 4.590774e-02 -9.984110e-01 -3.268073e-02
      outer loop
         vertex 1.139290e+01 1.397001e+00 2.093030e+00
         vertex 1.148331e+01 1.397001e+00 2.220032e+00
         vertex 1.141691e+01 1.393825e+00 2.223757e+00
      endloop
   endfacet
   facet normal 4.590733e-02 -9.984110e-01 -3.268066e-02
      outer loop
         vertex 1.139290e+01 1.397001e+00 2.093030e+00
         vertex 1.141691e+01 1.393825e+00 2.223757e+00
         vertex 1.136390e+01 1.393825e+00 2.149289e+00
      endloop
   endfacet
   facet normal 2.364558e-01 -9.579358e-01 -1.626272e-01
      outer loop
         vertex 1.155613e+01 1.407935e+00 2.215947e+00
         vertex 1.159739e+01 1.423109e+00 2.186570e+00
         vertex 1.161903e+01 1.424061e+00 2.212418e+00
      endloop
   endfacet
   facet normal 3.021368e-01 -9.233189e-01 -2.370559e-01
      outer loop
         vertex 1.165474e+01 1.439146e+00 2.199180e+00
         vertex 1.165597e+01 1.436681e+00 2.210346e+00
         vertex 1.161903e+01 1.424061e+00 2.212418e+00
      endloop
   endfacet
   facet normal 3.128811e-01 -9.220290e-01 -2.279647e-01
      outer loop
         vertex 1.159739e+01 1.423109e+00 2.186570e+00
         vertex 1.163759e+01 1.443825e+00 2.157953e+00
         vertex 1.164549e+01 1.443288e+00 2.170967e+00
      endloop
   endfacet
   facet normal 3.105754e-01 -9.212725e-01 -2.340938e-01
      outer loop
         vertex 1.164549e+01 1.443288e+00 2.170967e+00
         vertex 1.164965e+01 1.442309e+00 2.180338e+00
         vertex 1.159739e+01 1.423109e+00 2.186570e+00
      endloop
   endfacet
   facet normal 3.100399e-01 -9.207312e-01 -2.369163e-01
      outer loop
         vertex 1.159739e+01 1.423109e+00 2.186570e+00
         vertex 1.164965e+01 1.442309e+00 2.180338e+00
         vertex 1.165122e+01 1.441699e+00 2.184761e+00
      endloop
   endfacet
   facet normal 3.111687e-01 -9.229810e-01 -2.264512e-01
      outer loop
         vertex 1.159739e+01 1.423109e+00 2.186570e+00
         vertex 1.165122e+01 1.441699e+00 2.184761e+00
         vertex 1.161903e+01 1.424061e+00 2.212418e+00
      endloop
   endfacet
   facet normal 3.022164e-01 -9.232899e-01 -2.370674e-01
      outer loop
         vertex 1.161903e+01 1.424061e+00 2.212418e+00
         vertex 1.165122e+01 1.441699e+00 2.184761e+00
         vertex 1.165402e+01 1.439915e+00 2.195276e+00
      endloop
   endfacet
   facet normal 3.017998e-01 -9.232233e-01 -2.378561e-01
      outer loop
         vertex 1.161903e+01 1.424061e+00 2.212418e+00
         vertex 1.165402e+01 1.439915e+00 2.195276e+00
         vertex 1.165474e+01 1.439146e+00 2.199180e+00
      endloop
   endfacet
   facet normal 3.407429e-01 -9.209492e-01 1.890683e-01
      outer loop
         vertex 1.164357e+01 1.443825e+00 2.264466e+00
         vertex 1.091604e+01 1.443825e+00 3.575634e+00
         vertex 1.086279e+01 1.424061e+00 3.575332e+00
      endloop
   endfacet
   facet normal 3.267508e-01 -9.232661e-01 2.020236e-01
      outer loop
         vertex 1.161903e+01 1.424061e+00 2.212418e+00
         vertex 1.165597e+01 1.436681e+00 2.210346e+00
         vertex 1.165567e+01 1.439997e+00 2.225982e+00
      endloop
   endfacet
   facet normal 3.271530e-01 -9.233415e-01 2.010256e-01
      outer loop
         vertex 1.165567e+01 1.439997e+00 2.225982e+00
         vertex 1.165303e+01 1.442318e+00 2.240941e+00
         vertex 1.161903e+01 1.424061e+00 2.212418e+00
      endloop
   endfacet
   facet normal 3.314527e-01 -9.229613e-01 1.956567e-01
      outer loop
         vertex 1.161903e+01 1.424061e+00 2.212418e+00
         vertex 1.165303e+01 1.442318e+00 2.240941e+00
         vertex 1.164818e+01 1.443574e+00 2.255082e+00
      endloop
   endfacet
   facet normal 3.378148e-01 -9.216858e-01 1.907263e-01
      outer loop
         vertex 1.161903e+01 1.424061e+00 2.212418e+00
         vertex 1.164818e+01 1.443574e+00 2.255082e+00
         vertex 1.164357e+01 1.443825e+00 2.264466e+00
      endloop
   endfacet
   facet normal 3.407412e-01 -9.209501e-01 1.890672e-01
      outer loop
         vertex 1.164357e+01 1.443825e+00 2.264466e+00
         vertex 1.086279e+01 1.424061e+00 3.575332e+00
         vertex 1.161903e+01 1.424061e+00 2.212418e+00
      endloop
   endfacet
   facet normal 2.479666e-01 -9.589482e-01 1.375894e-01
      outer loop
         vertex 1.161903e+01 1.424061e+00 2.212418e+00
         vertex 1.086279e+01 1.424061e+00 3.575332e+00
         vertex 1.079503e+01 1.406486e+00 3.574948e+00
      endloop
   endfacet
   facet normal 2.532630e-01 -9.570939e-01 1.408163e-01
      outer loop
         vertex 1.161903e+01 1.424061e+00 2.212418e+00
         vertex 1.079503e+01 1.406486e+00 3.574948e+00
         vertex 1.155613e+01 1.407935e+00 2.215947e+00
      endloop
   endfacet
   facet normal 1.423362e-01 -9.866878e-01 7.866138e-02
      outer loop
         vertex 1.155613e+01 1.407935e+00 2.215947e+00
         vertex 1.079503e+01 1.406486e+00 3.574948e+00
         vertex 1.072532e+01 1.396398e+00 3.574553e+00
      endloop
   endfacet
   facet normal 1.526330e-01 -9.846229e-01 8.497553e-02
      outer loop
         vertex 1.155613e+01 1.407935e+00 2.215947e+00
         vertex 1.072532e+01 1.396398e+00 3.574553e+00
         vertex 1.148331e+01 1.397001e+00 2.220032e+00
      endloop
   endfacet
   facet normal 4.434923e-02 -9.987187e-01 2.437334e-02
      outer loop
         vertex 1.148331e+01 1.397001e+00 2.220032e+00
         vertex 1.072532e+01 1.396398e+00 3.574553e+00
         vertex 1.066757e+01 1.393825e+00 3.574225e+00
      endloop
   endfacet
   facet normal 4.927488e-02 -9.984110e-01 2.734118e-02
      outer loop
         vertex 1.148331e+01 1.397001e+00 2.220032e+00
         vertex 1.066757e+01 1.393825e+00 3.574225e+00
         vertex 1.141691e+01 1.393825e+00 2.223757e+00
      endloop
   endfacet
endsolid